<?xml version="1.0" encoding="UTF-8"?>
<svg version="1.1" xmlns="http://www.w3.org/2000/svg" width="512" height="512">
<path d="M0 0 C168.96 0 337.92 0 512 0 C512 168.96 512 337.92 512 512 C343.04 512 174.08 512 0 512 C0 343.04 0 174.08 0 0 Z " fill="#171717" transform="translate(0,0)"/>
<path d="M0 0 C55.11 0 110.22 0 167 0 C167 15.18 167 30.36 167 46 C130.37 46 93.74 46 56 46 C56 66.79 56 87.58 56 109 C96.26 109 136.52 109 178 109 C178 124.18 178 139.36 178 155 C119.26 155 60.52 155 0 155 C0 103.85 0 52.7 0 0 Z " fill="#FDFDFD" transform="translate(169,230)"/>
<path d="M0 0 C58.08 0 116.16 0 176 0 C176 15.18 176 30.36 176 46 C117.92 46 59.84 46 0 46 C0 30.82 0 15.64 0 0 Z " fill="#FDFDFD" transform="translate(169,123)"/>
<path d="M0 0 C0.33 0 0.66 0 1 0 C1 16.83 1 33.66 1 51 C-15.5 51 -32 51 -49 51 C-45.92640247 49.46320123 -43.22667003 48.3736519 -40 47.3125 C-22.8245686 41.06896768 -11.85264129 30.15831958 -4 14 C-2.11569421 9.44626101 -0.78574823 4.87163902 0 0 Z " fill="#000000" transform="translate(511,461)"/>
<path d="M0 0 C1.53679877 3.07359753 2.6263481 5.77332997 3.6875 9 C9.93103232 26.1754314 20.84168042 37.14735871 37 45 C41.55373899 46.88430579 46.12836098 48.21425177 51 49 C51 49.33 51 49.66 51 50 C34.17 50 17.34 50 0 50 C0 33.5 0 17 0 0 Z " fill="#000000" transform="translate(0,462)"/>
<path d="M0 0 C16.83 0 33.66 0 51 0 C51 16.5 51 33 51 50 C49.46320123 46.92640247 48.3736519 44.22667003 47.3125 41 C41.06896768 23.8245686 30.15831958 12.85264129 14 5 C9.44626101 3.11569421 4.87163902 1.78574823 0 1 C0 0.67 0 0.34 0 0 Z " fill="#000000" transform="translate(461,0)"/>
<path d="M0 0 C16.5 0 33 0 50 0 C46.92640247 1.53679877 44.22667003 2.6263481 41 3.6875 C23.8245686 9.93103232 12.85264129 20.84168042 5 37 C3.11569421 41.55373899 1.78574823 46.12836098 1 51 C0.67 51 0.34 51 0 51 C0 34.17 0 17.34 0 0 Z " fill="#000000" transform="translate(0,0)"/>
</svg>
