<?xml version="1.0" encoding="UTF-8"?>
<svg version="1.1" xmlns="http://www.w3.org/2000/svg" width="220" height="220">
<path d="M0 0 C72.6 0 145.2 0 220 0 C220 72.6 220 145.2 220 220 C147.4 220 74.8 220 0 220 C0 147.4 0 74.8 0 0 Z " fill="#FCFCFC" transform="translate(0,0)"/>
<path d="M0 0 C1.00870903 -0.00074776 1.00870903 -0.00074776 2.03779602 -0.00151062 C3.44881164 0.00081574 4.85983254 0.01045874 6.27075195 0.02709961 C8.43022607 0.05083009 10.58847422 0.04763331 12.74804688 0.04101562 C23.31912353 0.08384277 23.31912353 0.08384277 26.73828125 2.36328125 C28.35613252 5.00293332 28.73828125 6.203408 28.73828125 9.36328125 C38.88687688 10.42382581 48.55073095 10.14802381 58.69824219 9.48632812 C61.48265916 9.3183834 64.26173876 9.22088706 67.05078125 9.17578125 C67.85128906 9.16160156 68.65179688 9.14742187 69.4765625 9.1328125 C71.73828125 9.36328125 71.73828125 9.36328125 74.35546875 10.4296875 C77.70397686 11.74164395 79.39739083 10.54241904 82.73828125 9.36328125 C86.40486257 9.03262762 89.8421744 9.18405988 93.453125 9.90625 C97.50021679 10.4692818 101.24367449 10.19635377 105.30078125 9.86328125 C109.92432797 9.48568491 114.20122994 9.14142189 118.73828125 10.36328125 C118.89296875 9.46609375 118.89296875 9.46609375 119.05078125 8.55078125 C119.8645368 5.96155903 120.61166554 5.03352147 122.73828125 3.36328125 C125.078125 2.96484375 125.078125 2.96484375 127.67578125 2.98828125 C128.95775391 2.97667969 128.95775391 2.97667969 130.265625 2.96484375 C133.22433553 3.44160279 134.56244456 4.33059171 136.73828125 6.36328125 C137.77119801 8.34648143 138.77203115 10.34675931 139.73828125 12.36328125 C140.25390625 12.81832031 140.76953125 13.27335937 141.30078125 13.7421875 C143.75399639 16.50872087 143.19594616 19.47639242 143.109375 23.015625 C142.61068771 26.17047827 140.9561602 27.1454023 138.73828125 29.36328125 C138.57111323 31.70409684 138.57111323 31.70409684 138.73828125 34.30078125 C138.84279999 37.67524328 138.78376976 39.2571414 137.42578125 42.42578125 C133.28344683 45.41211537 128.76195499 45.47953155 123.73828125 45.36328125 C123.40828125 45.03328125 123.07828125 44.70328125 122.73828125 44.36328125 C120.56696403 44.26308115 118.39237705 44.23246828 116.21875 44.23046875 C115.23628044 44.22903366 115.23628044 44.22903366 114.23396301 44.22756958 C112.84436955 44.2268877 111.45477293 44.22874252 110.06518555 44.23291016 C107.94507601 44.23823281 105.82518081 44.23297883 103.70507812 44.2265625 C102.35546828 44.22722378 101.00585858 44.22850598 99.65625 44.23046875 C98.42672607 44.23159668 97.19720215 44.23272461 95.93041992 44.23388672 C93.29007201 44.34091421 91.25224708 44.66942261 88.73828125 45.36328125 C84.84638237 45.48882638 81.44066324 45.48971001 77.61328125 44.80078125 C74.78483912 44.21162427 74.78483912 44.21162427 72.16772461 44.82763672 C67.75229765 45.51728196 63.45381089 45.50626826 58.9921875 45.49609375 C58.06284897 45.49705048 57.13351044 45.4980072 56.17601013 45.49899292 C54.21686739 45.4996713 52.25772236 45.49784095 50.29858398 45.49365234 C47.3142385 45.48830536 44.33004392 45.49360586 41.34570312 45.5 C39.43619759 45.49933904 37.52669214 45.49805751 35.6171875 45.49609375 C34.73156631 45.49811798 33.84594513 45.50014221 32.93348694 45.50222778 C28.09256107 45.48408341 23.53671552 45.05669071 18.73828125 44.36328125 C15.73862243 44.23401642 12.74414962 44.24613754 9.7421875 44.265625 C8.90864243 44.26703995 8.07509735 44.2684549 7.21629333 44.26991272 C4.57775139 44.27546957 1.93929716 44.28801385 -0.69921875 44.30078125 C-2.49804564 44.30580183 -4.29687388 44.31036376 -6.09570312 44.31445312 C-10.48440833 44.32542482 -14.87304871 44.34265929 -19.26171875 44.36328125 C-19.26171875 43.04328125 -19.26171875 41.72328125 -19.26171875 40.36328125 C-18.58625 40.30269531 -17.91078125 40.24210937 -17.21484375 40.1796875 C-16.3228125 40.09589844 -15.43078125 40.01210937 -14.51171875 39.92578125 C-13.63 39.84457031 -12.74828125 39.76335937 -11.83984375 39.6796875 C-9.31197509 39.42731585 -9.31197509 39.42731585 -7.10546875 38.80078125 C-4.62324442 38.21177887 -2.70633877 38.75212624 -0.26171875 39.36328125 C0.06828125 38.04328125 0.39828125 36.72328125 0.73828125 35.36328125 C0.07828125 35.36328125 -0.58171875 35.36328125 -1.26171875 35.36328125 C-0.94978411 33.63401251 -0.63714513 31.90487081 -0.32421875 30.17578125 C-0.06318359 28.73138672 -0.06318359 28.73138672 0.203125 27.2578125 C0.69065475 24.62088153 1.2049923 21.99129075 1.73828125 19.36328125 C-1.82302958 19.36328125 -4.04355374 19.81220306 -7.26171875 21.36328125 C-8.60256173 24.393516 -8.60256173 24.393516 -9.07421875 27.92578125 C-10.23230699 34.33386949 -10.23230699 34.33386949 -11.26171875 35.36328125 C-12.9278899 35.40391957 -14.5955997 35.40600225 -16.26171875 35.36328125 C-15.29816522 24.80519469 -15.29816522 24.80519469 -14.26171875 20.36328125 C-14.92171875 20.36328125 -15.58171875 20.36328125 -16.26171875 20.36328125 C-16.26171875 19.04328125 -16.26171875 17.72328125 -16.26171875 16.36328125 C-15.27171875 16.03328125 -14.28171875 15.70328125 -13.26171875 15.36328125 C-12.24642334 13.0365626 -11.24683677 10.70293655 -10.26171875 8.36328125 C-6.20813451 5.66089176 -4.07861771 6.13390511 0.73828125 6.36328125 C1.39828125 6.69328125 2.05828125 7.02328125 2.73828125 7.36328125 C5.07832295 7.08086242 7.41332848 6.75077338 9.73828125 6.36328125 C10.36328125 8.73828125 10.36328125 8.73828125 10.73828125 11.36328125 C8.73828125 13.36328125 8.73828125 13.36328125 6.11328125 13.48828125 C5.32953125 13.44703125 4.54578125 13.40578125 3.73828125 13.36328125 C3.73828125 14.02328125 3.73828125 14.68328125 3.73828125 15.36328125 C4.72828125 15.03328125 5.71828125 14.70328125 6.73828125 14.36328125 C7.06828125 16.01328125 7.39828125 17.66328125 7.73828125 19.36328125 C8.72828125 19.36328125 9.71828125 19.36328125 10.73828125 19.36328125 C10.980625 18.43644531 11.22296875 17.50960937 11.47265625 16.5546875 C11.97539063 14.75837891 11.97539063 14.75837891 12.48828125 12.92578125 C12.813125 11.73082031 13.13796875 10.53585938 13.47265625 9.3046875 C14.73828125 6.36328125 14.73828125 6.36328125 16.87890625 5.453125 C17.4925 5.42347656 18.10609375 5.39382812 18.73828125 5.36328125 C18.73828125 4.37328125 18.73828125 3.38328125 18.73828125 2.36328125 C18.07828125 2.69328125 17.41828125 3.02328125 16.73828125 3.36328125 C14.90918201 3.40075905 13.07863052 3.37616085 11.25 3.3203125 C9.60161133 3.2884082 9.60161133 3.2884082 7.91992188 3.25585938 C5.601908 3.20273552 3.28413381 3.13774782 0.96679688 3.06054688 C-5.54602388 2.88245046 -5.54602388 2.88245046 -11.50390625 5.171875 C-13.67768462 7.88185203 -14.02789434 9.9338566 -14.26171875 13.36328125 C-15.58171875 13.36328125 -16.90171875 13.36328125 -18.26171875 13.36328125 C-17.75602138 8.9384293 -16.36229983 6.54766182 -13.26171875 3.36328125 C-8.69652102 0.60494247 -5.30258842 -0.01266351 0 0 Z " fill="#F0F0F0" transform="translate(51.26171875,88.63671875)"/>
<path d="M0 0 C2 2 2 2 2.125 4.625 C2.08375 5.40875 2.0425 6.1925 2 7 C2.61875 7.309375 3.2375 7.61875 3.875 7.9375 C5.25 8.625 6.625 9.3125 8 10 C8.37707587 16.53598176 8.37707587 16.53598176 6.4921875 18.85546875 C4.48978435 21.73326804 4.76165107 23.60127834 4.9375 27.0625 C5.20864553 32.6870317 5.20864553 32.6870317 3 36 C-0.87217825 38.0823398 -3.66960538 38.10433228 -7.98291016 37.63110352 C-17.74553577 36.77059004 -27.47932165 36.87545077 -37.2734375 36.90234375 C-39.2936703 36.90421304 -41.31390355 36.90563453 -43.33413696 36.90663147 C-48.60458671 36.91041643 -53.8750081 36.92021152 -59.14544678 36.93133545 C-64.54227312 36.94163688 -69.93910412 36.94614764 -75.3359375 36.95117188 C-85.89063733 36.96183812 -96.44531629 36.97886514 -107 37 C-106.67 36.34 -106.34 35.68 -106 35 C-101.51597575 34.85677938 -97.03192619 34.71438669 -92.54785156 34.57275391 C-91.02310479 34.52447782 -89.49836511 34.47597735 -87.97363281 34.42724609 C-85.77931524 34.35715381 -83.58497326 34.2878742 -81.390625 34.21875 C-80.7113092 34.19687622 -80.03199341 34.17500244 -79.33209229 34.15246582 C-76.21840673 34.05511724 -73.11583496 34 -70 34 C-69.34 33.01 -68.68 32.02 -68 31 C-65.375 30.8125 -65.375 30.8125 -63 31 C-63 30.67 -63 30.34 -63 30 C-64.98 30 -66.96 30 -69 30 C-68.34 25.38 -67.68 20.76 -67 16 C-68.65 16.66 -70.3 17.32 -72 18 C-73.25532803 20.84376315 -73.25532803 20.84376315 -73.8125 24.125 C-74.04582031 25.22070312 -74.27914062 26.31640625 -74.51953125 27.4453125 C-74.67808594 28.28835937 -74.83664063 29.13140625 -75 30 C-76.98 30 -78.96 30 -81 30 C-80.34 25.38 -79.68 20.76 -79 16 C-80.65 16.66 -82.3 17.32 -84 18 C-85.00158978 20.59200105 -85.00158978 20.59200105 -85.25 23.5625 C-85.95067265 28.95067265 -85.95067265 28.95067265 -87 30 C-88.99958364 30.04080783 -91.00045254 30.04254356 -93 30 C-92.52464031 27.20763552 -92.0448933 24.41615009 -91.5625 21.625 C-91.42779297 20.8309375 -91.29308594 20.036875 -91.15429688 19.21875 C-90.11328125 13.2265625 -90.11328125 13.2265625 -89 11 C-87.35 11 -85.7 11 -84 11 C-84 11.66 -84 12.32 -84 13 C-83.278125 12.484375 -82.55625 11.96875 -81.8125 11.4375 C-78.52645834 9.7579676 -77.4395167 9.91383683 -74 11 C-73.01 11.33 -72.02 11.66 -71 12 C-70.34 11.67 -69.68 11.34 -69 11 C-66.3276379 10.86584528 -63.67749512 10.95681459 -61 11 C-61 11.66 -61 12.32 -61 13 C-60.34 13 -59.68 13 -59 13 C-58.85884766 12.06607422 -58.85884766 12.06607422 -58.71484375 11.11328125 C-58 9 -58 9 -54.5625 7.1875 C-49.6098081 5.51562941 -45.07034592 6.13762559 -40 7 C-40 7.66 -40 8.32 -40 9 C-39.2884375 8.67128906 -38.576875 8.34257813 -37.84375 8.00390625 C-34.816422 6.93519293 -32.68923049 6.82551859 -29.5 6.9375 C-25.79765665 7.05709817 -22.61696002 6.78761274 -19 6 C-17.3337447 5.9629721 -15.66598681 5.95240038 -14 6 C-13.62875 5.071875 -13.62875 5.071875 -13.25 4.125 C-10.23916124 -0.99342589 -5.33699136 -0.34432202 0 0 Z M-32 11 C-31.01 11 -30.02 11 -29 11 C-28.67 11.66 -28.34 12.32 -28 13 C-27.01 12.34 -26.02 11.68 -25 11 C-25 10.34 -25 9.68 -25 9 C-28.10551666 9 -29.35261084 9.5393715 -32 11 Z " fill="#F5F5F5" transform="translate(184,94)"/>
<path d="M0 0 C0.66 0.33 1.32 0.66 2 1 C4.3400417 0.71758117 6.67504723 0.38749213 9 0 C9.625 2.375 9.625 2.375 10 5 C8 7 8 7 5.375 7.125 C4.59125 7.08375 3.8075 7.0425 3 7 C3 7.66 3 8.32 3 9 C3.99 8.67 4.98 8.34 6 8 C6.33 9.65 6.66 11.3 7 13 C7.99 13 8.98 13 10 13 C11.32 8.71 12.64 4.42 14 0 C15.98 0 17.96 0 20 0 C19.67 3.96 19.34 7.92 19 12 C19.969375 11.484375 20.93875 10.96875 21.9375 10.4375 C26.32176958 8.54063235 30.42666418 8.76119417 35 10 C37 12 37 12 37.265625 14.13671875 C37.23285371 19.48663237 36.75992026 23.94022926 35 29 C32.66666667 29 30.33333333 29 28 29 C26.68195843 29.28823414 25.36981573 29.60397625 24.0625 29.9375 C23.37285156 30.11152344 22.68320313 30.28554687 21.97265625 30.46484375 C20.29842794 30.91904034 18.64572218 31.45142594 17 32 C16.505 32.99 16.505 32.99 16 34 C10.39 34 4.78 34 -1 34 C-0.67 32.35 -0.34 30.7 0 29 C-0.66 29 -1.32 29 -2 29 C-1.68806536 27.27073126 -1.37542638 25.54158956 -1.0625 23.8125 C-0.80146484 22.36810547 -0.80146484 22.36810547 -0.53515625 20.89453125 C-0.0476265 18.25760028 0.46671105 15.6280095 1 13 C-2.56131083 13 -4.78183499 13.44892181 -8 15 C-9.34084298 18.03023475 -9.34084298 18.03023475 -9.8125 21.5625 C-10.97058824 27.97058824 -10.97058824 27.97058824 -12 29 C-13.66617115 29.04063832 -15.33388095 29.042721 -17 29 C-16.03644647 18.44191344 -16.03644647 18.44191344 -15 14 C-15.66 14 -16.32 14 -17 14 C-17 12.68 -17 11.36 -17 10 C-16.01 9.67 -15.02 9.34 -14 9 C-12.98470459 6.67328135 -11.98511802 4.3396553 -11 2 C-6.94641576 -0.70238949 -4.81689896 -0.22937614 0 0 Z " fill="#EEEEEE" transform="translate(52,95)"/>
<path d="M0 0 C2 2 2 2 2.125 4.625 C2.08375 5.40875 2.0425 6.1925 2 7 C3.32 7.66 4.64 8.32 6 9 C5.64989059 17.35010941 5.64989059 17.35010941 2.9375 20.0625 C1.9784375 20.5265625 1.9784375 20.5265625 1 21 C1.66 21.66 2.32 22.32 3 23 C3.55778776 29.91656819 3.55778776 29.91656819 1.84765625 33.23828125 C0 35 0 35 -2.7421875 35.42578125 C-3.77601563 35.38839844 -4.80984375 35.35101563 -5.875 35.3125 C-7.41800781 35.27576172 -7.41800781 35.27576172 -8.9921875 35.23828125 C-12 35 -12 35 -14.8203125 34.41796875 C-15.53960937 34.28003906 -16.25890625 34.14210937 -17 34 C-17.33 34.33 -17.66 34.66 -18 35 C-19.41570123 35.08651611 -20.835595 35.10704904 -22.25390625 35.09765625 C-23.10791016 35.09443359 -23.96191406 35.09121094 -24.84179688 35.08789062 C-25.73962891 35.07951172 -26.63746094 35.07113281 -27.5625 35.0625 C-28.46419922 35.05798828 -29.36589844 35.05347656 -30.29492188 35.04882812 C-32.53001314 35.03700225 -34.76497437 35.0205222 -37 35 C-36.67 34.01 -36.34 33.02 -36 32 C-36.66 31.67 -37.32 31.34 -38 31 C-37.42978625 24.04339229 -35.98697306 17.68572695 -34 11 C-31.33333333 11 -28.66666667 11 -26 11 C-25.443125 9.7625 -25.443125 9.7625 -24.875 8.5 C-23 6 -23 6 -20.80859375 5.66796875 C-18.52151682 5.6858645 -16.27661557 5.78522495 -14 6 C-13.70351562 5.36578125 -13.40703125 4.7315625 -13.1015625 4.078125 C-10.3643966 -1.08560641 -5.15209369 -0.33239314 0 0 Z " fill="#F5F5F5" transform="translate(184,94)"/>
<path d="M0 0 C0.33 0 0.66 0 1 0 C1.3277453 4.68857865 1.56148577 8.68986653 -0.3125 13.0625 C-4.45483442 16.04883412 -8.97632626 16.1162503 -14 16 C-14.33 15.67 -14.66 15.34 -15 15 C-17.17131722 14.8997999 -19.3459042 14.86918703 -21.51953125 14.8671875 C-22.50200081 14.86575241 -22.50200081 14.86575241 -23.50431824 14.86428833 C-24.8939117 14.86360645 -26.28350832 14.86546127 -27.6730957 14.86962891 C-29.79320524 14.87495156 -31.91310044 14.86969758 -34.03320312 14.86328125 C-35.38281297 14.86394253 -36.73242267 14.86522473 -38.08203125 14.8671875 C-39.31155518 14.86831543 -40.5410791 14.86944336 -41.80786133 14.87060547 C-44.44820924 14.97763296 -46.48603417 15.30614136 -49 16 C-52.89189888 16.12554513 -56.29761801 16.12642876 -60.125 15.4375 C-62.95344213 14.84834302 -62.95344213 14.84834302 -65.57055664 15.46435547 C-69.9859836 16.15400071 -74.28447036 16.14298701 -78.74609375 16.1328125 C-79.67543228 16.13376923 -80.60477081 16.13472595 -81.56227112 16.13571167 C-83.52141386 16.13639005 -85.48055889 16.1345597 -87.43969727 16.13037109 C-90.42404275 16.12502411 -93.40823733 16.13032461 -96.39257812 16.13671875 C-98.30208366 16.13605779 -100.21158911 16.13477626 -102.12109375 16.1328125 C-103.00671494 16.13483673 -103.89233612 16.13686096 -104.80479431 16.13894653 C-109.64572018 16.12080216 -114.20156573 15.69340946 -119 15 C-121.99965882 14.87073517 -124.99413163 14.88285629 -127.99609375 14.90234375 C-128.82963882 14.9037587 -129.6631839 14.90517365 -130.52198792 14.90663147 C-133.16052986 14.91218832 -135.79898409 14.9247326 -138.4375 14.9375 C-140.23632689 14.94252058 -142.03515513 14.94708251 -143.83398438 14.95117188 C-148.22268958 14.96214357 -152.61132996 14.97937804 -157 15 C-157 13.68 -157 12.36 -157 11 C-156.32453125 10.93941406 -155.6490625 10.87882813 -154.953125 10.81640625 C-154.06109375 10.73261719 -153.1690625 10.64882812 -152.25 10.5625 C-151.36828125 10.48128906 -150.4865625 10.40007812 -149.578125 10.31640625 C-147.04018545 10.06699735 -147.04018545 10.06699735 -144.796875 9.40234375 C-143 9 -143 9 -141 10 C-139.50238238 10.09540112 -138.00065172 10.13073486 -136.5 10.1328125 C-135.613125 10.13410156 -134.72625 10.13539063 -133.8125 10.13671875 C-132.884375 10.13285156 -131.95625 10.12898437 -131 10.125 C-130.071875 10.12886719 -129.14375 10.13273438 -128.1875 10.13671875 C-126.8571875 10.13478516 -126.8571875 10.13478516 -125.5 10.1328125 C-124.27796875 10.13112061 -124.27796875 10.13112061 -123.03125 10.12939453 C-120.93149048 10.12801503 -120.93149048 10.12801503 -119 9 C-117.0546875 9.33984375 -117.0546875 9.33984375 -114.875 9.9375 C-114.15054688 10.13214844 -113.42609375 10.32679688 -112.6796875 10.52734375 C-112.12539062 10.68332031 -111.57109375 10.83929688 -111 11 C-111 11.33 -111 11.66 -111 12 C-109.26685043 11.99666908 -109.26685043 11.99666908 -107.49868774 11.99327087 C-96.58242458 11.97295384 -85.66616528 11.9579867 -74.74988747 11.94818783 C-69.13842604 11.94298071 -63.52697995 11.93592266 -57.91552734 11.92456055 C-52.49497706 11.9136543 -47.07444148 11.90770682 -41.65388107 11.90512276 C-39.59115747 11.90328242 -37.52843462 11.89968879 -35.46571732 11.89426994 C-32.5651809 11.88695671 -29.66470438 11.88601337 -26.76416016 11.88647461 C-25.92114349 11.88287933 -25.07812683 11.87928406 -24.20956421 11.87557983 C-19.12785697 11.88426113 -14.18669148 12.23006767 -9.14330101 12.86458683 C-6.31440735 13.04331556 -4.40813266 12.47595227 -2 11 C-0.85480988 8.70961976 -0.92648088 7.46931463 -1 4.9375 C-1 1 -1 1 0 0 Z " fill="#E3E3E3" transform="translate(189,118)"/>
<path d="M0 0 C0.99 0.33 1.98 0.66 3 1 C3.66 0.67 4.32 0.34 5 0 C7.6723621 -0.13415472 10.32250488 -0.04318541 13 0 C15.68730469 5.37460939 12.77622808 13.55290057 11 19 C9.02 19 7.04 19 5 19 C5.66 14.38 6.32 9.76 7 5 C5.35 5.66 3.7 6.32 2 7 C0.74467197 9.84376315 0.74467197 9.84376315 0.1875 13.125 C-0.04582031 14.22070312 -0.27914062 15.31640625 -0.51953125 16.4453125 C-0.67808594 17.28835937 -0.83664063 18.13140625 -1 19 C-2.98 19 -4.96 19 -7 19 C-6.34 14.38 -5.68 9.76 -5 5 C-6.65 5.66 -8.3 6.32 -10 7 C-11.00158978 9.59200105 -11.00158978 9.59200105 -11.25 12.5625 C-11.95067265 17.95067265 -11.95067265 17.95067265 -13 19 C-14.99958364 19.04080783 -17.00045254 19.04254356 -19 19 C-18.52464031 16.20763552 -18.0448933 13.41615009 -17.5625 10.625 C-17.42779297 9.8309375 -17.29308594 9.036875 -17.15429688 8.21875 C-16.11328125 2.2265625 -16.11328125 2.2265625 -15 0 C-13.35 0 -11.7 0 -10 0 C-10 0.66 -10 1.32 -10 2 C-8.9171875 1.2265625 -8.9171875 1.2265625 -7.8125 0.4375 C-4.52645834 -1.2420324 -3.4395167 -1.08616317 0 0 Z " fill="#111111" transform="translate(110,105)"/>
<path d="M0 0 C0.66 0 1.32 0 2 0 C1.67 3.3 1.34 6.6 1 10 C1.99 10 2.98 10 4 10 C4 8.35 4 6.7 4 5 C4.33 5.66 4.66 6.32 5 7 C5.66 7 6.32 7 7 7 C6.47462276 12.0302076 5.89405214 17.01885239 5 22 C6.65 21.67 8.3 21.34 10 21 C10.20302734 19.64455078 10.20302734 19.64455078 10.41015625 18.26171875 C12.14465515 8.75832657 12.14465515 8.75832657 14.6875 6.50390625 C16.5625 5.75 16.5625 5.75 20 5 C20.66 4.67 21.32 4.34 22 4 C22.99 4.66 23.98 5.32 25 6 C24.34 6 23.68 6 23 6 C23.33 6.99 23.66 7.98 24 9 C23.34 9 22.68 9 22 9 C22.185625 9.53625 22.37125 10.0725 22.5625 10.625 C23.11419324 13.61990614 22.60597444 16.03745829 22 19 C21.34 19 20.68 19 20 19 C20 19.99 20 20.98 20 22 C20.99 21.67 21.98 21.34 23 21 C22.67 22.65 22.34 24.3 22 26 C18.89139894 26.9991932 17.11388708 26.83036989 14 26 C13.34 26.33 12.68 26.66 12 27 C7.67544759 27.4502426 3.33740432 27.702335 -1 28 C-1.02891949 23.70834738 -1.04677118 19.41671964 -1.0625 15.125 C-1.07087891 13.90167969 -1.07925781 12.67835937 -1.08789062 11.41796875 C-1.09111328 10.25136719 -1.09433594 9.08476563 -1.09765625 7.8828125 C-1.10289307 6.80402832 -1.10812988 5.72524414 -1.11352539 4.61376953 C-1 2 -1 2 0 0 Z " fill="#ECECEC" transform="translate(30,102)"/>
<path d="M0 0 C0.33 0 0.66 0 1 0 C1.37707587 6.53598176 1.37707587 6.53598176 -0.5078125 8.85546875 C-2.51021565 11.73326804 -2.23834893 13.60127834 -2.0625 17.0625 C-1.79135447 22.6870317 -1.79135447 22.6870317 -4 26 C-7.87217825 28.0823398 -10.66960538 28.10433228 -14.98291016 27.63110352 C-24.74553577 26.77059004 -34.47932165 26.87545077 -44.2734375 26.90234375 C-46.2936703 26.90421304 -48.31390355 26.90563453 -50.33413696 26.90663147 C-55.60458671 26.91041643 -60.8750081 26.92021152 -66.14544678 26.93133545 C-71.54227312 26.94163688 -76.93910412 26.94614764 -82.3359375 26.95117188 C-92.89063733 26.96183812 -103.44531629 26.97886514 -114 27 C-113.67 26.34 -113.34 25.68 -113 25 C-108.6808321 24.85483086 -104.36158027 24.71256312 -100.04223633 24.57275391 C-98.57899523 24.52500992 -97.11577787 24.4765318 -95.65258789 24.42724609 C-93.52496285 24.35571702 -91.39727471 24.28666029 -89.26953125 24.21875 C-88.22105515 24.18430786 -88.22105515 24.18430786 -87.15139771 24.14916992 C-81.64382544 23.98287936 -76.15196294 24.02634215 -70.64331055 24.17773438 C-67.90842706 23.9938427 -66.32496835 23.40609997 -64 22 C-64 22.66 -64 23.32 -64 24 C-56.43385497 25.08325865 -49.16891615 24.90841007 -41.578125 24.40649414 C-36.68571074 24.08312708 -31.85034258 23.92185398 -26.9453125 24.0625 C-24.9462268 24.07091862 -24.9462268 24.07091862 -22.8671875 23.4375 C-21 23 -21 23 -19 24 C-17.00370297 24.14745376 -15.00152719 24.22113182 -13 24.25 C-11.39125 24.28867188 -11.39125 24.28867188 -9.75 24.328125 C-8.8425 24.21984375 -7.935 24.1115625 -7 24 C-5.00174039 21.00261059 -4.72449602 20.36652492 -4.75 17 C-4.74484375 16.319375 -4.7396875 15.63875 -4.734375 14.9375 C-4.90082397 12.67583993 -4.90082397 12.67583993 -7 10 C-6.401875 9.835 -5.80375 9.67 -5.1875 9.5 C-1.81472202 7.18723796 -1.1668452 3.80108663 0 0 Z " fill="#B5B5B5" transform="translate(191,104)"/>
<path d="M0 0 C1.60242375 3.31167574 0.57783749 6.38653758 -0.0625 9.9375 C-4.0225 9.9375 -7.9825 9.9375 -12.0625 9.9375 C-11.0725 11.4225 -11.0725 11.4225 -10.0625 12.9375 C-7.85524927 13.30112818 -7.85524927 13.30112818 -5.4375 13.125 C-4.62023437 13.09792969 -3.80296875 13.07085937 -2.9609375 13.04296875 C-2.33445313 13.00816406 -1.70796875 12.97335938 -1.0625 12.9375 C-1.3925 14.5875 -1.7225 16.2375 -2.0625 17.9375 C-6.24054828 19.33018276 -10.17254966 19.60153661 -14.375 18.125 C-16.0625 16.9375 -16.0625 16.9375 -18.0625 13.9375 C-18.75979622 7.89426607 -17.46483427 4.75747354 -14.0625 -0.0625 C-10.17439659 -3.39516007 -4.27996938 -2.20483271 0 0 Z " fill="#1D1D1D" transform="translate(144.0625,106.0625)"/>
<path d="M0 0 C0.78503906 0.07863281 1.57007812 0.15726562 2.37890625 0.23828125 C4.4375 0.6875 4.4375 0.6875 6.4375 2.6875 C7.17719377 8.63768369 6.39113658 14.07079484 4.4375 19.6875 C2.10416667 19.6875 -0.22916667 19.6875 -2.5625 19.6875 C-3.531875 19.89375 -4.50125 20.1 -5.5 20.3125 C-8.5625 20.6875 -8.5625 20.6875 -11.5625 18.6875 C-12.3265678 12.68411017 -12.3265678 12.68411017 -10.125 9.8125 C-6.37526484 8.16627481 -2.62089626 7.93898182 1.4375 7.6875 C1.1075 7.0275 0.7775 6.3675 0.4375 5.6875 C-2.5325 5.6875 -5.5025 5.6875 -8.5625 5.6875 C-8.2325 4.0375 -7.9025 2.3875 -7.5625 0.6875 C-4.5419408 -0.31935307 -3.09173734 -0.34126261 0 0 Z " fill="#080808" transform="translate(82.5625,104.3125)"/>
<path d="M0 0 C3.5 0.3125 3.5 0.3125 7 1 C9.84253161 6.68506322 7.31980915 14.14334688 6 20 C4.02 20 2.04 20 0 20 C0.33 15.71 0.66 11.42 1 7 C-0.65 7.33 -2.3 7.66 -4 8 C-4.99 11.96 -5.98 15.92 -7 20 C-8.98 20 -10.96 20 -13 20 C-11.89309248 13.59406714 -10.66054831 7.28636144 -9 1 C-6.33333333 1 -3.66666667 1 -1 1 C-0.67 0.67 -0.34 0.34 0 0 Z " fill="#0D0D0D" transform="translate(159,104)"/>
<path d="M0 0 C1.8871875 0.061875 1.8871875 0.061875 3.8125 0.125 C3.4825 1.775 3.1525 3.425 2.8125 5.125 C1.636875 5.24875 1.636875 5.24875 0.4375 5.375 C-2.33499104 5.85306339 -2.33499104 5.85306339 -3.5 8.1875 C-3.8403125 9.1465625 -3.8403125 9.1465625 -4.1875 10.125 C-2.2075 10.125 -0.2275 10.125 1.8125 10.125 C1.4825 11.445 1.1525 12.765 0.8125 14.125 C-0.8375 14.455 -2.4875 14.785 -4.1875 15.125 C-4.39246094 16.05183594 -4.59742188 16.97867188 -4.80859375 17.93359375 C-5.07800781 19.13113281 -5.34742188 20.32867187 -5.625 21.5625 C-5.89183594 22.75746094 -6.15867187 23.95242187 -6.43359375 25.18359375 C-7.1875 28.125 -7.1875 28.125 -8.1875 29.125 C-9.85367115 29.16563832 -11.52138095 29.167721 -13.1875 29.125 C-12.22394647 18.56691344 -12.22394647 18.56691344 -11.1875 14.125 C-11.8475 14.125 -12.5075 14.125 -13.1875 14.125 C-13.1875 12.805 -13.1875 11.485 -13.1875 10.125 C-12.1975 9.795 -11.2075 9.465 -10.1875 9.125 C-9.17220459 6.79828135 -8.17261802 4.4646553 -7.1875 2.125 C-4.09861478 0.06574319 -3.47814073 -0.1140374 0 0 Z " fill="#0B0B0B" transform="translate(48.1875,94.875)"/>
<path d="M0 0 C1.65 0 3.3 0 5 0 C4.67 2.31 4.34 4.62 4 7 C5.98 7 7.96 7 10 7 C9.67 8.32 9.34 9.64 9 11 C7.02 11 5.04 11 3 11 C2.67 14.63 2.34 18.26 2 22 C3.32 22 4.64 22 6 22 C5.67 23.65 5.34 25.3 5 27 C-1.33481811 27.47809948 -1.33481811 27.47809948 -4 25.5625 C-5.86579214 20.78140764 -4.58332172 15.74996517 -3 11 C-3.99 11 -4.98 11 -6 11 C-5.6875 9.0625 -5.6875 9.0625 -5 7 C-4.01 6.67 -3.02 6.34 -2 6 C-0.77479736 2.99152582 -0.77479736 2.99152582 0 0 Z " fill="#0E0E0E" transform="translate(176,98)"/>
<path d="M0 0 C0.625 2.375 0.625 2.375 1 5 C-1 7 -1 7 -3.625 7.125 C-4.40875 7.08375 -5.1925 7.0425 -6 7 C-6 7.66 -6 8.32 -6 9 C-5.01 8.67 -4.02 8.34 -3 8 C-2.2986006 12.05252985 -1.86637041 15.06212879 -3 19 C-3.35889212 20.58226891 -3.71300632 22.16562863 -4.0625 23.75 C-4.23910156 24.54921875 -4.41570313 25.3484375 -4.59765625 26.171875 C-4.73042969 26.77515625 -4.86320312 27.3784375 -5 28 C-6.98 28.33 -8.96 28.66 -11 29 C-10.68806536 27.27073126 -10.37542638 25.54158956 -10.0625 23.8125 C-9.88847656 22.84957031 -9.71445312 21.88664062 -9.53515625 20.89453125 C-9.0476265 18.25760028 -8.53328895 15.6280095 -8 13 C-8.99 13 -9.98 13 -11 13 C-11.33 12.34 -11.66 11.68 -12 11 C-14.52733235 10.34444881 -14.52733235 10.34444881 -17 10 C-16.3125 7.5625 -16.3125 7.5625 -15 5 C-12.5 4.375 -12.5 4.375 -10 4 C-9.34 3.01 -8.68 2.02 -8 1 C-5.1512821 -0.04452989 -3.12305119 0 0 0 Z " fill="#E2E2E2" transform="translate(61,95)"/>
<path d="M0 0 C0.763125 0.185625 1.52625 0.37125 2.3125 0.5625 C2.869375 0.706875 3.42625 0.85125 4 1 C4 1.66 4 2.32 4 3 C3.01 3 2.02 3 1 3 C1 3.66 1 4.32 1 5 C0.38125 5.268125 -0.2375 5.53625 -0.875 5.8125 C-3.2995233 6.95556848 -3.2995233 6.95556848 -5 10 C-5 8.35 -5 6.7 -5 5 C-7.5195697 5.58479123 -7.5195697 5.58479123 -10 7 C-11.00158978 9.59200105 -11.00158978 9.59200105 -11.25 12.5625 C-11.95067265 17.95067265 -11.95067265 17.95067265 -13 19 C-14.99958364 19.04080783 -17.00045254 19.04254356 -19 19 C-18.52464031 16.20763552 -18.0448933 13.41615009 -17.5625 10.625 C-17.42779297 9.8309375 -17.29308594 9.036875 -17.15429688 8.21875 C-16.11328125 2.2265625 -16.11328125 2.2265625 -15 0 C-13.35 0 -11.7 0 -10 0 C-10 0.66 -10 1.32 -10 2 C-8.9171875 1.2265625 -8.9171875 1.2265625 -7.8125 0.4375 C-4.50517143 -1.25291238 -3.4668485 -1.06672261 0 0 Z " fill="#0F0F0F" transform="translate(110,105)"/>
<path d="M0 0 C1.98 0 3.96 0 6 0 C5.18907856 4.08364847 4.37599007 8.16686251 3.5625 12.25 C3.33240234 13.40886719 3.10230469 14.56773438 2.86523438 15.76171875 C2.64287109 16.87675781 2.42050781 17.99179688 2.19140625 19.140625 C1.98717041 20.16704102 1.78293457 21.19345703 1.57250977 22.25097656 C1.10025013 24.51862839 0.58369814 26.75897419 0 29 C-1.98 29 -3.96 29 -6 29 C-2.78694158 8.36082474 -2.78694158 8.36082474 0 0 Z " fill="#0E0E0E" transform="translate(66,95)"/>
<path d="M0 0 C1.28197266 -0.01160156 1.28197266 -0.01160156 2.58984375 -0.0234375 C5.54855428 0.45332154 6.88666331 1.34231046 9.0625 3.375 C10.09541676 5.35820018 11.0962499 7.35847806 12.0625 9.375 C12.57683594 9.83003906 13.09117187 10.28507812 13.62109375 10.75390625 C16.07600706 13.51485211 15.58268399 16.44837277 15.5 19.98828125 C15.0625 22.375 15.0625 22.375 12.5625 25 C11.7375 25.45375 10.9125 25.9075 10.0625 26.375 C9.5675 24.89 9.5675 24.89 9.0625 23.375 C9.536875 22.776875 10.01125 22.17875 10.5 21.5625 C12.28347087 19.40446278 12.28347087 19.40446278 12.5625 16.375 C11.89699616 12.38197696 10.20970175 11.772868 7.0625 9.375 C5.75 6.125 5.75 6.125 5.0625 3.375 C-1.30423495 2.91444158 -1.30423495 2.91444158 -6.9375 5.375 C-7.63566825 6.69211173 -8.30619814 8.02456297 -8.9375 9.375 C-9.56398437 9.35179688 -10.19046875 9.32859375 -10.8359375 9.3046875 C-11.65320313 9.28664063 -12.47046875 9.26859375 -13.3125 9.25 C-14.53066406 9.21519531 -14.53066406 9.21519531 -15.7734375 9.1796875 C-18.15092243 9.16129949 -18.15092243 9.16129949 -19.9375 11.375 C-19.9375 10.715 -19.9375 10.055 -19.9375 9.375 C-22.2475 9.045 -24.5575 8.715 -26.9375 8.375 C-26.9375 8.045 -26.9375 7.715 -26.9375 7.375 C-24.87581015 7.17879233 -22.81309002 6.99339247 -20.75 6.8125 C-19.02716797 6.65587891 -19.02716797 6.65587891 -17.26953125 6.49609375 C-14.25118801 6.38640015 -11.84826064 6.63497611 -8.9375 7.375 C-8.834375 6.776875 -8.73125 6.17875 -8.625 5.5625 C-7.16435344 0.91498821 -4.67273985 -0.04216006 0 0 Z M-19.9375 11.375 C-20.2675 12.365 -20.5975 13.355 -20.9375 14.375 C-21.9275 14.705 -22.9175 15.035 -23.9375 15.375 C-23.9375 14.715 -23.9375 14.055 -23.9375 13.375 C-24.9275 13.045 -25.9175 12.715 -26.9375 12.375 C-24.44685112 11.68792445 -22.55863708 11.375 -19.9375 11.375 Z " fill="#EAEAEA" transform="translate(178.9375,91.625)"/>
<path d="M0 0 C1.65 0.33 3.3 0.66 5 1 C4.34 5.29 3.68 9.58 3 14 C4.65 14 6.3 14 8 14 C8 14.33 8 14.66 8 15 C6.35 15 4.7 15 3 15 C2.34 16.32 1.68 17.64 1 19 C-2.3 19 -5.6 19 -9 19 C-8.67 18.01 -8.34 17.02 -8 16 C-8.66 15.34 -9.32 14.68 -10 14 C-8.02 14 -6.04 14 -4 14 C-3.87882813 13.15695313 -3.75765625 12.31390625 -3.6328125 11.4453125 C-3.38144531 9.80175781 -3.38144531 9.80175781 -3.125 8.125 C-2.96257812 7.03445312 -2.80015625 5.94390625 -2.6328125 4.8203125 C-2 2 -2 2 0 0 Z " fill="#EAEAEA" transform="translate(156,110)"/>
<path d="M0 0 C2.375 0.25 2.375 0.25 5 1 C6.7941758 3.56310828 7 4.83119306 7 8 C9.20812607 8.16939049 11.41651224 8.33539222 13.625 8.5 C15.46964844 8.63921875 15.46964844 8.63921875 17.3515625 8.78125 C19.67535454 8.920578 22.0040661 9 24.33203125 9 C26.80679725 9 28.6291527 9.38816844 31 10 C31.86625 9.979375 32.7325 9.95875 33.625 9.9375 C36 10 36 10 38 12 C37.625 14.125 37.625 14.125 37 16 C36.278125 15.79375 35.55625 15.5875 34.8125 15.375 C31.55358415 14.94047789 29.91695496 15.58319331 27 17 C27 16.34 27 15.68 27 15 C25.68 14.67 24.36 14.34 23 14 C23.99 13.67 24.98 13.34 26 13 C26.33 12.34 26.66 11.68 27 11 C26.33613281 11.16757813 25.67226562 11.33515625 24.98828125 11.5078125 C19.84746342 12.69357778 16.85401474 13.36477641 12 11 C9.01179755 10.52737614 6.01431184 10.24955087 3 10 C2.51171875 7.98177083 2.0234375 5.96354167 1.53515625 3.9453125 C1.05153008 1.9414343 1.05153008 1.9414343 0 0 Z " fill="#EDEDED" transform="translate(73,90)"/>
<path d="M0 0 C6.58318599 0.74961826 13.133589 0.63993524 19.75 0.5625 C20.74 0.5625 21.73 0.5625 22.75 0.5625 C22.75 1.2225 22.75 1.8825 22.75 2.5625 C19.3459425 3.69718583 16.3933425 3.85208323 12.8125 4.0625 C8.26664539 4.26684819 8.26664539 4.26684819 3.8112793 5.07397461 C1.6058585 5.59666169 -0.31434325 5.67632612 -2.578125 5.66015625 C-3.37734375 5.65693359 -4.1765625 5.65371094 -5 5.65039062 C-5.825 5.64201172 -6.65 5.63363281 -7.5 5.625 C-8.34046875 5.62048828 -9.1809375 5.61597656 -10.046875 5.61132812 C-12.11461401 5.59957961 -14.18231624 5.58164522 -16.25 5.5625 C-16.25 4.2425 -16.25 2.9225 -16.25 1.5625 C-15.20199219 1.47162109 -15.20199219 1.47162109 -14.1328125 1.37890625 C-13.22273438 1.29511719 -12.31265625 1.21132812 -11.375 1.125 C-10.47007813 1.04378906 -9.56515625 0.96257812 -8.6328125 0.87890625 C-1.00196778 -0.13436985 -1.00196778 -0.13436985 0 0 Z " fill="#E0E0E0" transform="translate(48.25,127.4375)"/>
<path d="M0 0 C1.65 0 3.3 0 5 0 C2.42215154 2.64752004 0.08351902 4.94432065 -3 7 C-4.02110539 9.87116002 -4.02110539 9.87116002 -4.6875 13.125 C-4.93886719 14.22070312 -5.19023438 15.31640625 -5.44921875 16.4453125 C-5.72185547 17.70988281 -5.72185547 17.70988281 -6 19 C-7.98 19 -9.96 19 -12 19 C-11.01 14.71 -10.02 10.42 -9 6 C-7.35 5.67 -5.7 5.34 -4 5 C-4 4.34 -4 3.68 -4 3 C-3.01 3 -2.02 3 -1 3 C-0.67 2.01 -0.34 1.02 0 0 Z " fill="#080808" transform="translate(115,105)"/>
<path d="M0 0 C0.99 0 1.98 0 3 0 C2.63102969 2.12982862 2.22889176 4.2539326 1.8125 6.375 C1.59207031 7.55835937 1.37164062 8.74171875 1.14453125 9.9609375 C0 13 0 13 -2.55078125 14.2890625 C-3.35902344 14.52367188 -4.16726562 14.75828125 -5 15 C-5.33 15.66 -5.66 16.32 -6 17 C-6.33 15.68 -6.66 14.36 -7 13 C-6.01 13 -5.02 13 -4 13 C-3.67 11.35 -3.34 9.7 -3 8 C-3.99 8.495 -3.99 8.495 -5 9 C-7.3329866 9.04022391 -9.66706666 9.04320247 -12 9 C-12.66 7.68 -13.32 6.36 -14 5 C-10.04 5 -6.08 5 -2 5 C-1.67 3.68 -1.34 2.36 -1 1 C-0.67 0.67 -0.34 0.34 0 0 Z " fill="#E9E9E9" transform="translate(146,111)"/>
<path d="M0 0 C0.66 0 1.32 0 2 0 C1.67 3.3 1.34 6.6 1 10 C1.99 10 2.98 10 4 10 C4 8.35 4 6.7 4 5 C4.33 5.66 4.66 6.32 5 7 C5.66 7 6.32 7 7 7 C6.93993922 8.45947705 6.8511311 9.91779272 6.75 11.375 C6.70359375 12.18710938 6.6571875 12.99921875 6.609375 13.8359375 C6.40828125 14.55007812 6.2071875 15.26421875 6 16 C4.67505047 16.6831771 3.34161295 17.35015623 2 18 C1.30367785 19.95365445 1.30367785 19.95365445 1.25 22.125 C1.1675 23.40375 1.085 24.6825 1 26 C1.66 26.33 2.32 26.66 3 27 C1.68 27.33 0.36 27.66 -1 28 C-1.02891949 23.70834738 -1.04677118 19.41671964 -1.0625 15.125 C-1.07087891 13.90167969 -1.07925781 12.67835937 -1.08789062 11.41796875 C-1.09111328 10.25136719 -1.09433594 9.08476563 -1.09765625 7.8828125 C-1.10289307 6.80402832 -1.10812988 5.72524414 -1.11352539 4.61376953 C-1 2 -1 2 0 0 Z " fill="#E9E9E9" transform="translate(30,102)"/>
<path d="M0 0 C0.33 0.99 0.66 1.98 1 3 C8.02782042 4.0390717 8.02782042 4.0390717 15 3 C14.01 3.33 13.02 3.66 12 4 C12.33 4.99 12.66 5.98 13 7 C9.41682042 7.08720919 5.83391433 7.14046112 2.25 7.1875 C1.23421875 7.21263672 0.2184375 7.23777344 -0.828125 7.26367188 C-1.8078125 7.27333984 -2.7875 7.28300781 -3.796875 7.29296875 C-5.14797363 7.31653442 -5.14797363 7.31653442 -6.52636719 7.34057617 C-9.45308763 6.93761772 -10.81341349 5.9344597 -13 4 C-11.9790625 3.814375 -11.9790625 3.814375 -10.9375 3.625 C-5.02511516 2.71619115 -5.02511516 2.71619115 0 0 Z " fill="#F6F6F6" transform="translate(81,122)"/>
<path d="M0 0 C2.31 0.33 4.62 0.66 7 1 C7 1.33 7 1.66 7 2 C23.335 2.495 23.335 2.495 40 3 C40 3.33 40 3.66 40 4 C32.25885585 4.16840949 24.51756892 4.32826554 16.77612305 4.48217773 C14.14261883 4.53554533 11.50915352 4.59087052 8.87573242 4.64819336 C5.09041737 4.73025014 1.30501821 4.80526488 -2.48046875 4.87890625 C-3.65772018 4.90594131 -4.83497162 4.93297638 -6.04789734 4.96083069 C-7.14866104 4.98092697 -8.24942474 5.00102325 -9.38354492 5.02172852 C-10.83249397 5.05170677 -10.83249397 5.05170677 -12.31071472 5.08229065 C-14.98488527 5.0004625 -17.39813253 4.6037308 -20 4 C-20 3.67 -20 3.34 -20 3 C-10.1 2.505 -10.1 2.505 0 2 C0 1.34 0 0.68 0 0 Z " fill="#DDDDDD" transform="translate(71,128)"/>
<path d="M0 0 C0.99 0 1.98 0 3 0 C4.69199389 3.58304588 5.10392959 5.2466394 4 9 C3.64110788 10.58226891 3.28699368 12.16562863 2.9375 13.75 C2.67259766 14.94882813 2.67259766 14.94882813 2.40234375 16.171875 C2.26957031 16.77515625 2.13679688 17.3784375 2 18 C0.02 18.33 -1.96 18.66 -4 19 C-2.89309248 12.59406714 -1.66054831 6.28636144 0 0 Z " fill="#222222" transform="translate(54,105)"/>
<path d="M0 0 C2.64 0 5.28 0 8 0 C8 0.66 8 1.32 8 2 C7.34 2 6.68 2 6 2 C5.87882812 2.75925781 5.75765625 3.51851563 5.6328125 4.30078125 C5.38144531 5.79158203 5.38144531 5.79158203 5.125 7.3125 C4.96257812 8.29863281 4.80015625 9.28476563 4.6328125 10.30078125 C4 13 4 13 2 16 C1.01 16.33 0.02 16.66 -1 17 C-3 13.25 -3 13.25 -3 11 C-3.66 11 -4.32 11 -5 11 C-5 10.34 -5 9.68 -5 9 C-3.02 8.34 -1.04 7.68 1 7 C0.67 4.69 0.34 2.38 0 0 Z " fill="#F5F5F5" transform="translate(60,93)"/>
<path d="M0 0 C1.32 0.66 2.64 1.32 4 2 C3.69240822 3.97993541 3.3787932 5.95893599 3.0625 7.9375 C2.88847656 9.03964844 2.71445312 10.14179687 2.53515625 11.27734375 C2 14 2 14 1 15 C-0.66617115 15.04063832 -2.33388095 15.042721 -4 15 C-3.40546697 4.44191344 -3.40546697 4.44191344 0 0 Z " fill="#0A0A0A" transform="translate(39,109)"/>
<path d="M0 0 C0.33 1.32 0.66 2.64 1 4 C2.32 4 3.64 4 5 4 C4.01 7.96 3.02 11.92 2 16 C3.98 16 5.96 16 8 16 C8 16.33 8 16.66 8 17 C7.21625 17.12375 6.4325 17.2475 5.625 17.375 C2.85942178 17.79117993 2.85942178 17.79117993 1 20 C1 19.34 1 18.68 1 18 C-1.64 17.67 -4.28 17.34 -7 17 C-7 16.67 -7 16.34 -7 16 C-5.35 16 -3.7 16 -2 16 C-1.34 10.72 -0.68 5.44 0 0 Z " fill="#E5E5E5" transform="translate(89,108)"/>
<path d="M0 0 C0.66 0.66 1.32 1.32 2 2 C2.99 2 3.98 2 5 2 C5 2.99 5 3.98 5 5 C9.455 4.505 9.455 4.505 14 4 C14.33 4.99 14.66 5.98 15 7 C13.04200486 7.33531415 11.08359226 7.66819143 9.125 8 C8.03445312 8.185625 6.94390625 8.37125 5.8203125 8.5625 C3 9 3 9 1 9 C0.34 10.65 -0.32 12.3 -1 14 C-2.13732426 10.59598052 -1.83989957 8.22543336 -1.0625 4.75 C-0.86785156 3.85796875 -0.67320313 2.9659375 -0.47265625 2.046875 C-0.31667969 1.37140625 -0.16070312 0.6959375 0 0 Z " fill="#E2E2E2" transform="translate(69,105)"/>
<path d="M0 0 C1.28970703 0.00773437 1.28970703 0.00773437 2.60546875 0.015625 C7.85250029 0.07932189 12.93196068 0.50297346 18.125 1.25 C14.76794479 3.28406551 12.33060802 3.44519653 8.44140625 3.3046875 C7.34892578 3.28019531 6.25644531 3.25570312 5.13085938 3.23046875 C2.83893628 3.16026804 0.54724127 3.08216729 -1.74414062 2.99609375 C-8.2018409 2.78685618 -8.2018409 2.78685618 -14.109375 5.0546875 C-16.29062212 7.76676909 -16.64076029 9.81448418 -16.875 13.25 C-18.195 13.25 -19.515 13.25 -20.875 13.25 C-20.36930263 8.82514805 -18.97558108 6.43438057 -15.875 3.25 C-10.5847776 -0.16779438 -6.07833737 -0.14450728 0 0 Z " fill="#EDEDED" transform="translate(53.875,88.75)"/>
<path d="M0 0 C0.33 0.66 0.66 1.32 1 2 C5.29 2 9.58 2 14 2 C13.67 3.65 13.34 5.3 13 7 C8.78998784 8.40333739 4.8645326 8.63786642 0.625 7.1875 C-1 6 -1 6 -2 3 C-1.34 2.01 -0.68 1.02 0 0 Z " fill="#0D0D0D" transform="translate(129,117)"/>
<path d="M0 0 C1.32 0.66 2.64 1.32 4 2 C-2.40837696 8.58638743 -2.40837696 8.58638743 -5 10 C-10.42553191 9.57446809 -10.42553191 9.57446809 -12 8 C-12.04063832 6.33382885 -12.042721 4.66611905 -12 3 C-10.68 2.34 -9.36 1.68 -8 1 C-7.67 2.32 -7.34 3.64 -7 5 C-4.00847418 4.22520264 -4.00847418 4.22520264 -1 3 C-0.67 2.01 -0.34 1.02 0 0 Z " fill="#0B0B0B" transform="translate(83,115)"/>
<path d="M0 0 C3.18426404 1.09802208 3.94112325 1.88931172 5.5625 4.9375 C6.036875 5.948125 6.51125 6.95875 7 8 C7.51433594 8.45632812 8.02867187 8.91265625 8.55859375 9.3828125 C11.01566466 12.1395262 10.52012855 15.07574633 10.4375 18.61328125 C10 21 10 21 7.5 23.625 C6.2625 24.305625 6.2625 24.305625 5 25 C4.67 24.01 4.34 23.02 4 22 C4.7115625 21.1028125 4.7115625 21.1028125 5.4375 20.1875 C7.22097087 18.02946278 7.22097087 18.02946278 7.5 15 C7.31494466 11.81663599 7.31494466 11.81663599 4.625 10.125 C0.91486539 7.1215577 0.84705732 4.62031265 0 0 Z " fill="#E3E3E3" transform="translate(184,93)"/>
<path d="M0 0 C0.66 0.33 1.32 0.66 2 1 C1.34 4.96 0.68 8.92 0 13 C-1.65 13.33 -3.3 13.66 -5 14 C-5.33 13.01 -5.66 12.02 -6 11 C-5.34 11 -4.68 11 -4 11 C-4.33 10.01 -4.66 9.02 -5 8 C-4.34 8 -3.68 8 -3 8 C-3 7.34 -3 6.68 -3 6 C-3.66 5.67 -4.32 5.34 -5 5 C-4.34 5 -3.68 5 -3 5 C-3.33 4.01 -3.66 3.02 -4 2 C-2.125 0.9375 -2.125 0.9375 0 0 Z " fill="#E6E6E6" transform="translate(61,108)"/>
<path d="M0 0 C-0.99 0.66 -1.98 1.32 -3 2 C-2.67 3.65 -2.34 5.3 -2 7 C-4.31 7 -6.62 7 -9 7 C-9.103125 6.360625 -9.20625 5.72125 -9.3125 5.0625 C-9.539375 4.381875 -9.76625 3.70125 -10 3 C-10.99 2.67 -11.98 2.34 -13 2 C-8.3683343 -1.61848883 -5.49434694 -1.02436977 0 0 Z " fill="#222222" transform="translate(142,105)"/>
<path d="M0 0 C0.33 0 0.66 0 1 0 C1.37710438 6.53647587 1.37710438 6.53647587 -0.5 8.84375 C-2.52371934 11.75284656 -2.30170768 13.74763105 -2.1875 17.25 C-2.16042969 18.32765625 -2.13335937 19.4053125 -2.10546875 20.515625 C-2.07066406 21.33546875 -2.03585938 22.1553125 -2 23 C-3.65 23.66 -5.3 24.32 -7 25 C-6.67 24.505 -6.34 24.01 -6 23.5 C-4.52837941 19.82094852 -4.7483182 16.96398837 -5 13 C-5.66 12.01 -6.32 11.02 -7 10 C-6.401875 9.835 -5.80375 9.67 -5.1875 9.5 C-1.81472202 7.18723796 -1.1668452 3.80108663 0 0 Z " fill="#B0B0B0" transform="translate(191,104)"/>
<path d="M0 0 C4.70588235 0.70588235 4.70588235 0.70588235 6 2 C5.71269945 4.33944736 5.38063221 6.6739143 5 9 C1.7 9 -1.6 9 -5 9 C-5.33 8.34 -5.66 7.68 -6 7 C-3.69 7 -1.38 7 1 7 C0.34 5.02 -0.32 3.04 -1 1 C-0.67 0.67 -0.34 0.34 0 0 Z " fill="#060606" transform="translate(139,106)"/>
<path d="M0 0 C1.98 0 3.96 0 6 0 C5.814375 0.598125 5.62875 1.19625 5.4375 1.8125 C4.77906313 4.16408762 4.77906313 4.16408762 6 7 C5.01 7.495 5.01 7.495 4 8 C4 9.65 4 11.3 4 13 C3.67 12.34 3.34 11.68 3 11 C1.68 11 0.36 11 -1 11 C-1.14285714 3.57142857 -1.14285714 3.57142857 0 0 Z " fill="#DEDEDE" transform="translate(179,109)"/>
<path d="M0 0 C0 2.17384564 -0.39535857 3.91734618 -1 6 C-2 7 -2 7 -4.5625 7.0625 C-5.366875 7.041875 -6.17125 7.02125 -7 7 C-7.33 6.01 -7.66 5.02 -8 4 C-9.32 4.33 -10.64 4.66 -12 5 C-11.5 3.125 -11.5 3.125 -10 1 C-6.66341121 -0.35018741 -3.32402981 -1.66201491 0 0 Z " fill="#1E1E1E" transform="translate(83,113)"/>
<path d="M0 0 C0.66 0.33 1.32 0.66 2 1 C2 1.66 2 2.32 2 3 C-0.76565382 3.92188461 -2.38283702 4.11785222 -5.23046875 4.09765625 C-6.03291016 4.09443359 -6.83535156 4.09121094 -7.66210938 4.08789062 C-8.49548828 4.07951172 -9.32886719 4.07113281 -10.1875 4.0625 C-11.03248047 4.05798828 -11.87746094 4.05347656 -12.74804688 4.04882812 C-14.83206155 4.03705403 -16.91603977 4.0191189 -19 4 C-19.33 3.34 -19.66 2.68 -20 2 C-14.26018345 1.25937851 -8.75543819 0.91961881 -2.96875 1.0625 C-0.99655272 1.22465746 -0.99655272 1.22465746 0 0 Z " fill="#B4B4B4" transform="translate(69,127)"/>
<path d="M0 0 C1.485 0.99 1.485 0.99 3 2 C2.67 4.31 2.34 6.62 2 9 C3.98 9 5.96 9 8 9 C6.68 9.33 5.36 9.66 4 10 C4.33 10.99 4.66 11.98 5 13 C2.03 12.505 2.03 12.505 -1 12 C-1.14285714 3.42857143 -1.14285714 3.42857143 0 0 Z " fill="#FAFAFA" transform="translate(32,116)"/>
<path d="M0 0 C3.04275136 0.60855027 6.00645224 1.22389502 9 2 C9 2.66 9 3.32 9 4 C8.01 4 7.02 4 6 4 C6 4.66 6 5.32 6 6 C5.38125 6.268125 4.7625 6.53625 4.125 6.8125 C1.7004767 7.95556848 1.7004767 7.95556848 0 11 C0 7.37 0 3.74 0 0 Z " fill="#202020" transform="translate(105,104)"/>
<path d="M0 0 C0 0.99 0 1.98 0 3 C-4.85197144 5.74945048 -9.72150622 5.06428167 -15 4 C-17.30859375 2.953125 -17.30859375 2.953125 -19 2 C-15.25725316 0.79327054 -11.71879452 0.93523242 -7.8125 1 C-5.54197489 1.03741339 -3.27034704 1.04699295 -1 1 C-0.67 0.67 -0.34 0.34 0 0 Z " fill="#BFBFBF" transform="translate(187,127)"/>
<path d="M0 0 C-0.33 1.65 -0.66 3.3 -1 5 C-2.65 5 -4.3 5 -6 5 C-6 4.01 -6 3.02 -6 2 C-6.99 2 -7.98 2 -9 2 C-9 2.66 -9 3.32 -9 4 C-9.99 4.33 -10.98 4.66 -12 5 C-9.28085049 -1.02097391 -6.0998139 -0.0983841 0 0 Z " fill="#1C1C1C" transform="translate(52,95)"/>
<path d="M0 0 C1.32 0 2.64 0 4 0 C4.625 2.375 4.625 2.375 5 5 C4.34 5.66 3.68 6.32 3 7 C0.375 6.625 0.375 6.625 -2 6 C-1.125 1.125 -1.125 1.125 0 0 Z " fill="#171717" transform="translate(57,95)"/>
<path d="M0 0 C2.25 -0.0625 2.25 -0.0625 5 1 C6.69300427 3.86674844 7.86963623 6.87413371 9 10 C7.02 10 5.04 10 3 10 C2.51171875 7.98177083 2.0234375 5.96354167 1.53515625 3.9453125 C1.05153008 1.9414343 1.05153008 1.9414343 0 0 Z " fill="#CCCCCC" transform="translate(73,90)"/>
<path d="M0 0 C3.63 0 7.26 0 11 0 C10.34 1.32 9.68 2.64 9 4 C6.69 4 4.38 4 2 4 C1.34 2.68 0.68 1.36 0 0 Z " fill="#F2F2F2" transform="translate(132,116)"/>
<path d="M0 0 C1.32 0.66 2.64 1.32 4 2 C3.34 2 2.68 2 2 2 C2.33 2.99 2.66 3.98 3 5 C-0.75 8 -0.75 8 -3 8 C-3.99 8.495 -3.99 8.495 -5 9 C-5.33 7.35 -5.66 5.7 -6 4 C-4.68 4 -3.36 4 -2 4 C-1.34 2.68 -0.68 1.36 0 0 Z " fill="#FAFAFA" transform="translate(51,106)"/>
<path d="M0 0 C2.0625 0.4375 2.0625 0.4375 4 1 C3.01 1.33 2.02 1.66 1 2 C1 2.66 1 3.32 1 4 C-0.74965358 4.05429959 -2.49979787 4.09292823 -4.25 4.125 C-5.22453125 4.14820313 -6.1990625 4.17140625 -7.203125 4.1953125 C-10.0196498 3.99862781 -11.60949036 3.44568916 -14 2 C-10.97833856 0.99277952 -9.02274409 0.92658323 -5.875 1 C-4.25043671 1.03767103 -2.62433238 1.04657584 -1 1 C-0.67 0.67 -0.34 0.34 0 0 Z " fill="#AFAFAF" transform="translate(167,127)"/>
<path d="M0 0 C-7.06238046 4.42272836 -18.09342803 2.26505151 -26 1 C-26 0.67 -26 0.34 -26 0 C-8.14350797 -1.33257403 -8.14350797 -1.33257403 0 0 Z " fill="#E4E4E4" transform="translate(72,90)"/>
<path d="M0 0 C3.3 0 6.6 0 10 0 C10.33 0.99 10.66 1.98 11 3 C7.7 3.66 4.4 4.32 1 5 C0.67 3.35 0.34 1.7 0 0 Z " fill="#DADADA" transform="translate(73,109)"/>
<path d="M0 0 C2.31 0.33 4.62 0.66 7 1 C5.13216429 3.80175356 3.69725519 5.11192137 1 7 C0.34 6.34 -0.32 5.68 -1 5 C-0.625 2.375 -0.625 2.375 0 0 Z " fill="#1E1E1E" transform="translate(159,104)"/>
<path d="M0 0 C-0.99 0.33 -1.98 0.66 -3 1 C-3.73323796 3.01508358 -3.73323796 3.01508358 -4 5 C-5.98 5.33 -7.96 5.66 -10 6 C-9.67 4.35 -9.34 2.7 -9 1 C-5.8035914 -0.06546953 -3.34252724 -0.07427838 0 0 Z " fill="#1B1B1B" transform="translate(84,104)"/>
<path d="M0 0 C0.99 0.33 1.98 0.66 3 1 C3 1.66 3 2.32 3 3 C0.05770079 3.9807664 -1.9908784 4.16488128 -5.0625 4.1875 C-6.37927734 4.20876953 -6.37927734 4.20876953 -7.72265625 4.23046875 C-10 4 -10 4 -12 2 C-10.95199219 1.90912109 -10.95199219 1.90912109 -9.8828125 1.81640625 C-8.97273438 1.73261719 -8.06265625 1.64882812 -7.125 1.5625 C-6.22007813 1.48128906 -5.31515625 1.40007812 -4.3828125 1.31640625 C-1.98889139 1.13010715 -1.98889139 1.13010715 0 0 Z " fill="#B4B4B4" transform="translate(44,127)"/>
<path d="M0 0 C2.66130399 1.01755741 3.80516056 1.66684861 5.265625 4.1640625 C5.59046875 4.97617188 5.9153125 5.78828125 6.25 6.625 C6.75273437 7.85089844 6.75273437 7.85089844 7.265625 9.1015625 C7.62914062 10.04128906 7.62914062 10.04128906 8 11 C7.01 11.495 7.01 11.495 6 12 C1.6409923 8.51279384 1.05447817 5.27239085 0 0 Z " fill="#D0D0D0" transform="translate(184,93)"/>
<path d="M0 0 C0.99 0.33 1.98 0.66 3 1 C2.67 3.64 2.34 6.28 2 9 C1.01 9 0.02 9 -1 9 C-1.125 2.25 -1.125 2.25 0 0 Z " fill="#F7F7F7" transform="translate(179,111)"/>
<path d="M0 0 C0.99 0.33 1.98 0.66 3 1 C2.57692877 2.31722179 2.13602514 3.62872664 1.6875 4.9375 C1.44386719 5.66839844 1.20023437 6.39929688 0.94921875 7.15234375 C0 9 0 9 -3 10 C-2.25 3.375 -2.25 3.375 0 0 Z " fill="#F9F9F9" transform="translate(70,113)"/>
<path d="M0 0 C1.98 0 3.96 0 6 0 C6 0.99 6 1.98 6 3 C3.69 3.33 1.38 3.66 -1 4 C-0.67 2.68 -0.34 1.36 0 0 Z " fill="#090909" transform="translate(81,105)"/>
<path d="M0 0 C1.32 0 2.64 0 4 0 C4.66 1.32 5.32 2.64 6 4 C3.36 4 0.72 4 -2 4 C-1.34 2.68 -0.68 1.36 0 0 Z " fill="#FCFCFC" transform="translate(116,125)"/>
<path d="M0 0 C2.475 0.99 2.475 0.99 5 2 C4.34 3.32 3.68 4.64 3 6 C1.02 5.34 -0.96 4.68 -3 4 C-2.01 2.68 -1.02 1.36 0 0 Z " fill="#FBFBFB" transform="translate(144,123)"/>
<path d="M0 0 C2.64 0 5.28 0 8 0 C8 0.66 8 1.32 8 2 C7.34 2 6.68 2 6 2 C5.67 2.99 5.34 3.98 5 5 C3.68 4.67 2.36 4.34 1 4 C0.67 2.68 0.34 1.36 0 0 Z " fill="#EBEBEB" transform="translate(60,93)"/>
<path d="M0 0 C0.66 0 1.32 0 2 0 C1.34 1.32 0.68 2.64 0 4 C-2.64 4 -5.28 4 -8 4 C-8 3.34 -8 2.68 -8 2 C-6.865625 1.855625 -5.73125 1.71125 -4.5625 1.5625 C-1.19222799 1.38828522 -1.19222799 1.38828522 0 0 Z " fill="#ACACAC" transform="translate(124,127)"/>
<path d="M0 0 C1.134375 0.020625 2.26875 0.04125 3.4375 0.0625 C3.7675 1.0525 4.0975 2.0425 4.4375 3.0625 C2.1875 3.75 2.1875 3.75 -0.5625 4.0625 C-2.875 2.625 -2.875 2.625 -4.5625 1.0625 C-3.5625 0.0625 -3.5625 0.0625 0 0 Z " fill="#FCFCFC" transform="translate(72.5625,124.9375)"/>
<path d="M0 0 C-0.33 1.32 -0.66 2.64 -1 4 C-2.65 4.33 -4.3 4.66 -6 5 C-5.6875 3.0625 -5.6875 3.0625 -5 1 C-2 0 -2 0 0 0 Z " fill="#DEDEDE" transform="translate(83,115)"/>
<path d="M0 0 C2.31 0.33 4.62 0.66 7 1 C7 1.99 7 2.98 7 4 C3.7 3.67 0.4 3.34 -3 3 C-2.01 2.67 -1.02 2.34 0 2 C0 1.34 0 0.68 0 0 Z " fill="#C7C7C7" transform="translate(71,128)"/>
<path d="M0 0 C2.31 0.33 4.62 0.66 7 1 C7 2.32 7 3.64 7 5 C5.35 5 3.7 5 2 5 C2 4.34 2 3.68 2 3 C1.34 2.67 0.68 2.34 0 2 C0 1.34 0 0.68 0 0 Z " fill="#F9F9F9" transform="translate(172,124)"/>
<path d="M0 0 C0.99 0 1.98 0 3 0 C3.66 1.65 4.32 3.3 5 5 C3.02 5 1.04 5 -1 5 C-0.67 3.35 -0.34 1.7 0 0 Z " fill="#1C1C1C" transform="translate(54,105)"/>
<path d="M0 0 C4.95 0 9.9 0 15 0 C15 0.33 15 0.66 15 1 C14.21625 1.12375 13.4325 1.2475 12.625 1.375 C9.85942178 1.79117993 9.85942178 1.79117993 8 4 C8 3.34 8 2.68 8 2 C5.36 1.67 2.72 1.34 0 1 C0 0.67 0 0.34 0 0 Z " fill="#C6C6C6" transform="translate(82,124)"/>
<path d="M0 0 C0.61875 0.165 1.2375 0.33 1.875 0.5 C3.96063386 1.07634644 3.96063386 1.07634644 6 1 C6 1.99 6 2.98 6 4 C3.36 4 0.72 4 -2 4 C-1.34 2.68 -0.68 1.36 0 0 Z " fill="#FDFDFD" transform="translate(159,125)"/>
<path d="M0 0 C0.66 0 1.32 0 2 0 C2.1546875 1.423125 2.1546875 1.423125 2.3125 2.875 C2.68539295 6.29107501 2.68539295 6.29107501 6 8 C4.02 8 2.04 8 0 8 C0 5.36 0 2.72 0 0 Z " fill="#CECECE" transform="translate(180,97)"/>
<path d="M0 0 C0.66 0.33 1.32 0.66 2 1 C1.67 2.98 1.34 4.96 1 7 C0.01 6.67 -0.98 6.34 -2 6 C-1.34 4.02 -0.68 2.04 0 0 Z " fill="#FBFBFB" transform="translate(184,121)"/>
<path d="M0 0 C1.65 0.33 3.3 0.66 5 1 C5 1.66 5 2.32 5 3 C2.69 3 0.38 3 -2 3 C-1.34 2.01 -0.68 1.02 0 0 Z " fill="#EFEFEF" transform="translate(135,109)"/>
<path d="M0 0 C2.475 0.495 2.475 0.495 5 1 C4.67 3.31 4.34 5.62 4 8 C2.66666667 5.33333333 1.33333333 2.66666667 0 0 Z " fill="#DEDEDE" transform="translate(73,90)"/>
</svg>
