<?xml version="1.0" encoding="UTF-8"?>
<svg version="1.1" xmlns="http://www.w3.org/2000/svg" width="512" height="512">
<path d="M0 0 C1.05840088 0.02102783 1.05840088 0.02102783 2.13818359 0.04248047 C74.74924871 1.51074674 141.70327199 29.78164912 192 82 C195.12058936 85.57092909 198.05134931 89.28634634 201 93 C201.79535156 93.97839844 202.59070313 94.95679687 203.41015625 95.96484375 C210.45149742 104.81394604 216.33708108 114.22078528 222 124 C222.37398926 124.64195312 222.74797852 125.28390625 223.13330078 125.9453125 C234.56285613 145.776936 242.02140415 167.86105487 246.75 190.1875 C246.94875732 191.12432617 247.14751465 192.06115234 247.35229492 193.02636719 C250.53537759 208.83672379 251.40752156 224.22746594 251.375 240.3125 C251.37418427 241.83293915 251.37418427 241.83293915 251.37335205 243.38409424 C251.33347078 259.5825904 250.46275558 275.1231479 247 291 C246.78037598 292.03157227 246.56075195 293.06314453 246.33447266 294.12597656 C241.1190539 318.03643848 231.91448079 339.17103843 221 361 C218.07633531 359.6744811 215.95812378 358.22475932 213.65823364 355.99295044 C213.01878311 355.37648148 212.37933258 354.76001251 211.72050476 354.12486267 C211.03043839 353.44960037 210.34037201 352.77433807 209.62939453 352.07861328 C208.89408005 351.36607895 208.15876556 350.65354462 207.40116882 349.91941833 C199.73951199 342.47853118 192.13964199 334.97394016 184.54492188 327.46484375 C180.9391224 323.90365781 177.31484814 320.36301934 173.67285156 316.83886719 C169.27346367 312.58154627 164.90934556 308.2909114 160.56814194 303.97430038 C158.90942356 302.33639481 157.23870293 300.71055141 155.55597305 299.09732437 C142.40764131 286.46468011 142.40764131 286.46468011 141.42166138 280.50325012 C141.92165186 277.39478108 142.76038727 274.88368383 144 272 C145.57889492 261.99100066 146.38861996 252.19639959 146.375 242.0625 C146.37468277 241.06777176 146.37468277 241.06777176 146.37435913 240.052948 C146.31592827 221.49270207 143.5212013 203.41794693 137 186 C136.62319092 184.9788208 136.62319092 184.9788208 136.23876953 183.93701172 C128.46082775 163.17519405 117.17351687 146.12006896 102 130 C101.45214844 129.39929688 100.90429688 128.79859375 100.33984375 128.1796875 C76.1863864 102.66129275 38.69218311 87.84074075 4.02734375 86.71875 C-9.89433422 86.45623162 -23.40835431 86.8681638 -37 90 C-37.80211914 90.17740723 -38.60423828 90.35481445 -39.43066406 90.53759766 C-67.82433289 97.03781815 -92.41806991 111.67940648 -113 132 C-113.5664624 132.54599854 -114.1329248 133.09199707 -114.71655273 133.65454102 C-142.45479375 160.71836502 -156.33460469 200.36237022 -157.28320312 238.54345703 C-157.68386749 274.70341624 -146.57978668 310.53877526 -124 339 C-123.60087402 339.50595703 -123.20174805 340.01191406 -122.79052734 340.53320312 C-99.5216285 369.78147154 -66.79479605 389.25826752 -30 396 C-28.82695312 396.22429687 -27.65390625 396.44859375 -26.4453125 396.6796875 C-25.24648437 396.86789062 -24.04765625 397.05609375 -22.8125 397.25 C-21.8687854 397.39888672 -21.8687854 397.39888672 -20.90600586 397.55078125 C-16.20436517 398.13074879 -12.00021886 397.79103466 -7.30859375 397.1328125 C12.1256995 394.90864429 12.1256995 394.90864429 19.96972656 400.62646484 C27.93246346 407.14936371 34.62000514 415.02713476 41.25537109 422.85449219 C43.86141641 425.89736603 46.65911122 428.4846578 49.74755859 431.03393555 C52.94937493 433.82867075 55.91903087 436.83809293 58.9140625 439.8515625 C59.5371933 440.47798141 60.1603241 441.10440033 60.80233765 441.74980164 C62.74516534 443.70628855 64.68549907 445.66521544 66.625 447.625 C69.19755777 450.22431543 71.77352494 452.82018317 74.3515625 455.4140625 C74.92983795 456.00063629 75.5081134 456.58721008 76.10391235 457.19155884 C79.57955051 460.68790825 83.16483592 463.90100193 87 467 C86.67 467.99 86.34 468.98 86 470 C84.09594727 470.90380859 84.09594727 470.90380859 81.56640625 471.6484375 C80.62055664 471.92921143 79.67470703 472.20998535 78.70019531 472.49926758 C77.14703613 472.93275513 77.14703613 472.93275513 75.5625 473.375 C74.49225586 473.67881592 73.42201172 473.98263184 72.31933594 474.2956543 C64.52276458 476.44520276 56.68518237 478.2552227 48.75 479.8125 C47.77232666 480.0069873 46.79465332 480.20147461 45.78735352 480.40185547 C28.92320151 483.53264832 11.99290429 484.38417515 -5.125 484.3125 C-6.06054718 484.31034485 -6.99609436 484.3081897 -7.95999146 484.30596924 C-23.15354058 484.25007675 -38.00242803 483.63651584 -53 481 C-54.66095703 480.70996094 -54.66095703 480.70996094 -56.35546875 480.4140625 C-80.56903383 476.02145607 -103.82792666 468.68123981 -126 458 C-127.32794962 457.38113394 -128.65607364 456.76264199 -129.984375 456.14453125 C-149.46058601 446.91428157 -166.97353937 434.61057049 -182.7890625 420.0234375 C-184.73331937 418.2440646 -186.72392702 416.55911974 -188.75 414.875 C-231.16291114 377.78516678 -256.69817074 319.48945055 -261 264 C-261.37852453 256.567089 -261.39004419 249.12829674 -261.375 241.6875 C-261.37445618 240.6738739 -261.37391235 239.6602478 -261.37335205 238.61590576 C-261.33346183 222.4137761 -260.45055888 206.88202443 -257 191 C-256.78569336 189.9790625 -256.57138672 188.958125 -256.35058594 187.90625 C-249.02726007 153.79468848 -234.13974676 121.05200307 -212 94 C-211.195625 92.99195312 -210.39125 91.98390625 -209.5625 90.9453125 C-198.19899684 76.92409166 -185.25829168 63.86010228 -170.66357422 53.21484375 C-168.99218631 51.99429397 -167.34162497 50.74897191 -165.69140625 49.5 C-119.06722889 14.69307301 -57.80714786 -2.02946952 0 0 Z " fill="#7AA529" transform="translate(261,6)"/>
<path d="M0 0 C24.47001361 -6.91899352 54.30203771 -11.57818344 78 0 C98.16346591 12.38504052 114.7963474 30.94722824 130.875 48.0625 C131.41364606 48.63520048 131.95229213 49.20790095 132.5072608 49.79795599 C142.26822503 60.18912289 151.91419858 70.68465145 161.29710388 81.41921997 C161.73640077 81.92150267 162.17569765 82.42378538 162.62830657 82.94128877 C164.66773799 85.27666101 166.69799645 87.61916494 168.71584988 89.97321987 C172.53549662 94.38935293 176.4175714 98.37346587 180.87362862 102.14243221 C185.29799352 106.00749445 189.37088089 110.25033897 193.51171875 114.4140625 C194.54401598 115.44828305 195.57654419 116.4822731 196.60928345 117.51605225 C198.81832934 119.72823929 201.02581692 121.94196516 203.23208618 124.15692139 C206.72705139 127.66550486 210.22591341 131.17018524 213.7253418 134.67431641 C221.78373621 142.74471047 229.83709077 150.82012758 237.89039612 158.89559937 C245.27657335 166.30200224 252.66383244 173.7073176 260.05516148 181.10857964 C263.52748058 184.58585458 266.99735307 188.06554646 270.46531677 191.54716492 C272.629597 193.71895006 274.79598806 195.88862041 276.96293259 198.05774689 C277.96025887 199.05693134 278.95672751 200.05697278 279.95222855 201.05797577 C281.32165804 202.4347294 282.69458481 203.80800161 284.06762695 205.18115234 C284.90166298 206.01571425 285.73569901 206.85027617 286.59500885 207.71012783 C288.84161119 209.84919274 291.17129214 211.75697717 293.60021973 213.68238831 C296.45125905 216.1426783 296.94483464 216.79281405 297.96203613 220.61314392 C297.94427124 221.8944368 297.92650635 223.17572968 297.90820312 224.49584961 C297.90937134 225.20888245 297.91053955 225.92191528 297.91174316 226.65655518 C297.90621222 228.99053602 297.84422483 231.31926782 297.78125 233.65234375 C297.76631303 235.27898874 297.75493288 236.90566992 297.74694824 238.53236389 C297.71652696 242.79616164 297.63805665 247.05774919 297.54931641 251.32067871 C297.46720481 255.67767439 297.43088318 260.03503031 297.390625 264.39257812 C297.30504709 272.92939526 297.16866823 281.46442205 297 290 C286.99474618 290.39675961 276.99140837 290.69733965 266.97984409 290.88080692 C262.3286763 290.96894719 257.6829478 291.08807283 253.03491211 291.2824707 C218.84428467 292.67519197 218.84428467 292.67519197 209.49388123 284.23326111 C206.96607624 281.45391305 204.71272401 278.63338479 202.71153259 275.45188904 C197.43934186 267.89911049 190.64898249 261.50493328 184.15258789 255.02319336 C183.1791203 254.04836756 182.20586488 253.07332986 181.23280334 252.09809875 C178.61111961 249.47189059 175.9863241 246.84881405 173.36078572 244.22646022 C170.60038149 241.46860554 167.84243816 238.70829153 165.08409119 235.94837952 C160.45344562 231.3159198 155.8207075 226.68556063 151.18676758 222.05639648 C145.84590659 216.72097665 140.50865732 211.3819642 135.17326933 206.04107183 C130.57446521 201.43771506 125.97369688 196.83632821 121.37131113 192.2365523 C118.6303329 189.49712503 115.89001553 186.75704586 113.15147591 184.01518059 C110.57556757 181.43636216 107.9971843 178.86004306 105.41695213 176.28555107 C104.03089239 174.9014225 102.6472625 173.51486198 101.26373291 172.12820435 C96.8428194 167.72209108 92.36416725 163.45508352 87.61897945 159.39867496 C85.00792252 157.1429206 82.64435444 154.6673671 80.25 152.1875 C78.31109227 150.30245082 76.32988144 148.54383851 74.28125 146.78125 C69.03582022 142.2254971 64.22069715 137.27025448 59.35546875 132.31640625 C58.65035156 131.60355469 57.94523437 130.89070312 57.21875 130.15625 C56.59935547 129.52525391 55.97996094 128.89425781 55.34179688 128.24414062 C50.46202083 123.56785816 45.41221851 119.24859613 39.9609375 115.2487793 C33.73968783 110.65726003 27.79465057 105.80131998 22 100.6875 C21.47664188 100.22609745 20.95328377 99.7646949 20.41406631 99.28931046 C6.88842716 87.18294294 -1.51764689 75.6121116 -2.82516861 57.11249352 C-3.80937804 38.07959938 -2.28261514 18.89434826 0 0 Z " fill="#629A2F" transform="translate(210,216)"/>
<path d="M0 0 C24.47001361 -6.91899352 54.30203771 -11.57818344 78 0 C98.16346591 12.38504052 114.7963474 30.94722824 130.875 48.0625 C131.41364606 48.63520048 131.95229213 49.20790095 132.5072608 49.79795599 C142.26822503 60.18912289 151.91419858 70.68465145 161.29710388 81.41921997 C161.73640077 81.92150267 162.17569765 82.42378538 162.62830657 82.94128877 C164.66773799 85.27666101 166.69799645 87.61916494 168.71584988 89.97321987 C173.16157201 95.11319795 177.81355142 99.61926955 183 104 C184.39092564 105.31790872 185.76867296 106.65017544 187.12109375 108.00756836 C187.82121582 108.70776596 188.52133789 109.40796356 189.24267578 110.12937927 C189.96696777 110.85883255 190.69125977 111.58828583 191.4375 112.33984375 C192.20304199 113.10680069 192.96858398 113.87375763 193.75732422 114.66395569 C196.17393197 117.08610881 198.58701726 119.51173612 201 121.9375 C202.64950686 123.59202893 204.29924429 125.24632802 205.94921875 126.90039062 C209.96881371 130.93094202 213.98553169 134.96434272 218 139 C215 139 215 139 213.20574951 137.55978394 C212.54069397 136.88505035 211.87563843 136.21031677 211.19042969 135.51513672 C210.4324408 134.75369354 209.6744519 133.99225037 208.89349365 133.20773315 C208.0778595 132.37347809 207.26222534 131.53922302 206.421875 130.6796875 C205.57707581 129.82827179 204.73227661 128.97685608 203.86187744 128.09963989 C201.15077063 125.36505962 198.44996367 122.62057927 195.75 119.875 C193.0626862 117.15252328 190.37323184 114.43221308 187.68096924 111.71463013 C186.00481369 110.0216267 184.33176243 108.32554249 182.66229248 106.62594604 C181.14089444 105.08528149 179.60561128 103.55816793 178.05482483 102.04708862 C176 100 176 100 174.45579529 98.12893677 C171.2403384 94.59057497 168.44722897 93.67420859 163.67058372 93.31375313 C159.96775403 93.159006 156.27166884 93.17117977 152.56640625 93.1953125 C151.14381609 93.18424492 149.72124417 93.17050156 148.29870605 93.15405273 C143.05346357 93.11201292 137.80790984 93.12156901 132.5625 93.125 C120.826875 93.08375 109.09125 93.0425 97 93 C97 117.42 97 141.84 97 167 C91.8615737 163.14618027 87.81742454 160.04247818 83.5 155.5625 C80.49253235 152.45085802 77.46849514 149.50566897 74.1875 146.68359375 C68.96717742 142.16757107 64.18906543 137.23804659 59.35546875 132.31640625 C58.65035156 131.60355469 57.94523437 130.89070312 57.21875 130.15625 C56.59935547 129.52525391 55.97996094 128.89425781 55.34179688 128.24414062 C50.46202083 123.56785816 45.41221851 119.24859613 39.9609375 115.2487793 C33.73968783 110.65726003 27.79465057 105.80131998 22 100.6875 C21.47664188 100.22609745 20.95328377 99.7646949 20.41406631 99.28931046 C6.88842716 87.18294294 -1.51764689 75.6121116 -2.82516861 57.11249352 C-3.80937804 38.07959938 -2.28261514 18.89434826 0 0 Z " fill="#EE7812" transform="translate(210,216)"/>
<path d="M0 0 C9.11032575 -0.35021388 18.21827958 -0.61535953 27.33390808 -0.77718258 C31.56880153 -0.8549255 35.799038 -0.95999057 40.03125 -1.1315918 C71.13030471 -2.35783115 71.13030471 -2.35783115 79.42558289 4.60783386 C81.94339045 7.20611751 84.17304307 9.93084277 86.32427979 12.83810425 C89.25121637 16.6142309 92.74509028 19.8200735 96.16796875 23.140625 C97.50943245 24.48733569 98.84734917 25.83758912 100.18164062 27.19140625 C100.84010986 27.8580127 101.4985791 28.52461914 102.17700195 29.21142578 C103.5377858 30.59121268 104.89778979 31.97176905 106.25708008 33.35302734 C108.26467597 35.39076447 110.27841194 37.42227279 112.29296875 39.453125 C112.89505661 40.06867249 113.49714447 40.68421997 114.11747742 41.31842041 C114.68610001 41.89042175 115.2547226 42.4624231 115.84057617 43.05175781 C116.33192551 43.55056458 116.82327484 44.04937134 117.32951355 44.56329346 C119.01014578 46.1043716 119.01014578 46.1043716 121.27978516 47.27978516 C124.90488872 49.57223532 127.68172014 52.42709797 130.68286133 55.47167969 C131.33398392 56.12411652 131.98510651 56.77655334 132.65596008 57.44876099 C134.80262232 59.60190163 136.94221656 61.76193097 139.08203125 63.921875 C140.57978517 65.4259044 142.07805879 66.92941643 143.576828 68.43243408 C147.52189255 72.39079463 151.46135741 76.35467743 155.39923096 80.32019043 C161.68969109 86.65376533 167.98679223 92.98071834 174.2872982 99.3042984 C176.47870361 101.50585818 178.66662187 103.71083908 180.85420227 105.91619873 C182.21233342 107.28116575 183.57057852 108.64601939 184.92895508 110.01074219 C185.52818787 110.61671234 186.12742065 111.2226825 186.74481201 111.84701538 C187.608713 112.71318985 187.608713 112.71318985 188.49006653 113.59686279 C189.05220919 114.16057303 189.61435184 114.72428328 190.19352913 115.30507565 C192.01547888 117.06165786 192.01547888 117.06165786 194.18603325 118.73259068 C199.77510742 123.17311455 199.77510742 123.17311455 200.96203613 127.53721619 C200.93538879 129.40586082 200.93538879 129.40586082 200.90820312 131.31225586 C200.90937134 132.00578156 200.91053955 132.69930725 200.91174316 133.41384888 C200.90621415 135.68295965 200.84423964 137.9466644 200.78125 140.21484375 C200.76631225 141.79664743 200.75493247 143.37848835 200.74694824 144.96034241 C200.71653277 149.10580254 200.63806858 153.24898791 200.54931641 157.39355469 C200.46719157 161.62989532 200.43088044 165.86660688 200.390625 170.10351562 C200.30505754 178.40338288 200.16868671 186.70140778 200 195 C196.52868482 193.05200639 193.77508878 191.01797638 190.97924805 188.19042969 C190.22463791 187.4324408 189.47002777 186.6744519 188.69255066 185.89349365 C187.89037613 185.0778595 187.0882016 184.26222534 186.26171875 183.421875 C185.42212112 182.57707581 184.5825235 181.73227661 183.71748352 180.86187744 C181.03602158 178.16263069 178.36133039 175.45680498 175.6875 172.75 C173.02355927 170.05831743 170.35813325 167.36815022 167.68965149 164.68096924 C166.03169195 163.0108903 164.37641117 161.33814619 162.72428894 159.66229248 C158.6174822 155.52038251 154.42642528 151.58205425 150.00544739 147.77935791 C146.23735472 144.43607125 142.72894649 140.82987154 139.1875 137.25 C137.96776489 136.02458496 137.96776489 136.02458496 136.72338867 134.77441406 C133.2782266 131.31304958 129.8390971 127.84571409 126.39941406 124.37890625 C123.87253492 121.83384812 121.34258685 119.29186869 118.8125 116.75 C118.04768311 115.97688477 117.28286621 115.20376953 116.49487305 114.40722656 C112.45250579 110.34667641 108.31721919 106.48991246 103.9765625 102.75170898 C100.44722013 99.62386418 97.15744593 96.25927424 93.84375 92.90625 C93.0971814 92.15589478 92.35061279 91.40553955 91.5814209 90.63244629 C88.42298888 87.45783496 85.27060721 84.27724084 82.11767578 81.09716797 C79.79930255 78.76059639 77.4778448 76.42712001 75.15625 74.09375 C74.45705444 73.3862561 73.75785889 72.67876221 73.03747559 71.9498291 C69.15195103 68.04527037 65.15673863 64.35816644 60.98620605 60.76135254 C57.53121636 57.69749375 54.30668269 54.40892942 51.0625 51.125 C50.33812744 50.39684082 49.61375488 49.66868164 48.86743164 48.91845703 C45.80457576 45.83943049 42.74777689 42.75441677 39.69042969 39.66992188 C37.44155883 37.40284542 35.18959762 35.13887034 32.9375 32.875 C32.26017822 32.18937988 31.58285645 31.50375977 30.88500977 30.79736328 C26.98487397 26.87753711 22.97034899 23.1656537 18.78344727 19.55413818 C16.60745808 17.65792968 14.54236676 15.67174258 12.5 13.6328125 C11.75878906 12.89289063 11.01757812 12.15296875 10.25390625 11.390625 C9.51011719 10.64296875 8.76632812 9.8953125 8 9.125 C7.22527344 8.35414063 6.45054687 7.58328125 5.65234375 6.7890625 C4.92144531 6.056875 4.19054687 5.3246875 3.4375 4.5703125 C2.77621094 3.90789551 2.11492187 3.24547852 1.43359375 2.56298828 C0 1 0 1 0 0 Z " fill="#7DAB4E" transform="translate(307,309)"/>
<path d="M0 0 C69.21752341 -6.53188023 69.21752341 -6.53188023 86.6484375 7.76953125 C94.50128427 14.83280046 101.08080951 23.15384657 106.96142578 31.90063477 C109.53883643 35.6053476 112.45082798 38.34840607 115.90866089 41.22596741 C119.62670238 44.37989245 123.00434082 47.88221997 126.4375 51.33984375 C127.20304199 52.10680069 127.96858398 52.87375763 128.75732422 53.66395569 C131.17393197 56.08610881 133.58701726 58.51173612 136 60.9375 C137.64950686 62.59202893 139.29924429 64.24632802 140.94921875 65.90039062 C144.96881371 69.93094202 148.98553169 73.96434272 153 78 C150 78 150 78 148.20574951 76.55978394 C147.54069397 75.88505035 146.87563843 75.21031677 146.19042969 74.51513672 C145.4324408 73.75369354 144.6744519 72.99225037 143.89349365 72.20773315 C143.0778595 71.37347809 142.26222534 70.53922302 141.421875 69.6796875 C140.15467621 68.40256393 140.15467621 68.40256393 138.86187744 67.09963989 C136.15077063 64.36505962 133.44996367 61.62057927 130.75 58.875 C128.0626862 56.15252328 125.37323184 53.43221308 122.68096924 50.71463013 C121.00481369 49.0216267 119.33176243 47.32554249 117.66229248 45.62594604 C116.14089444 44.08528149 114.60561128 42.55816793 113.05482483 41.04708862 C111 39 111 39 109.45579529 37.12893677 C106.2403384 33.59057497 103.44722897 32.67420859 98.67058372 32.31375313 C94.96775403 32.159006 91.27166884 32.17117977 87.56640625 32.1953125 C86.14381609 32.18424492 84.72124417 32.17050156 83.29870605 32.15405273 C78.05346357 32.11201292 72.80790984 32.12156901 67.5625 32.125 C55.826875 32.08375 44.09125 32.0425 32 32 C32 56.42 32 80.84 32 106 C26.8615737 102.14618027 22.81742454 99.04247818 18.5 94.5625 C14.76305607 90.73203506 10.9477886 87.07941684 6.8515625 83.6328125 C6.24054688 83.09398437 5.62953125 82.55515625 5 82 C3.72277824 80.94822319 3.72277824 80.94822319 2.41975403 79.87519836 C-0.56470024 76.3290123 -0.68100664 73.79182406 -0.56762695 69.36401367 C-0.56835709 68.61225861 -0.56908722 67.86050354 -0.56983948 67.08596802 C-0.56636875 64.61255571 -0.5275358 62.14105011 -0.48828125 59.66796875 C-0.4789512 57.94876636 -0.47183599 56.22955065 -0.46684265 54.5103302 C-0.44778776 49.99397831 -0.39870053 45.47843545 -0.34332275 40.96240234 C-0.29209737 36.35069726 -0.26932162 31.73886094 -0.24414062 27.12695312 C-0.19057988 18.08428072 -0.10528575 9.04220774 0 0 Z " fill="#F2EA6B" transform="translate(275,277)"/>
<path d="M0 0 C11.2074056 -1.85180437 22.41191953 -3.06212691 33.75 -3.75 C34.58943272 -3.8012138 35.42886543 -3.8524276 36.2937355 -3.90519333 C57.54491928 -5.04754303 74.65355498 -2.8967301 91.1640358 11.36780167 C97.6903326 17.2360395 103.77641433 23.45382739 109.6875 29.9375 C110.6674015 31.01065208 110.6674015 31.01065208 111.667099 32.10548401 C135 57.82952528 135 57.82952528 135 61 C110.91 61 86.82 61 62 61 C62 86.08 62 111.16 62 137 C61.67 137 61.34 137 61 137 C61 111.59 61 86.18 61 60 C59.68 59.34 58.36 58.68 57 58 C55.55981885 56.72635732 54.16975764 55.39508183 52.81738281 54.02856445 C52.00263489 53.21043777 51.18788696 52.3923111 50.34844971 51.5493927 C49.47549255 50.66297592 48.6025354 49.77655914 47.703125 48.86328125 C46.31595494 47.46816115 44.92878214 46.07304377 43.54145432 44.67808056 C41.5985963 42.72209932 39.66030775 40.76162068 37.7220459 38.80108643 C34.34905243 35.39019258 30.97143834 31.98389247 27.59002686 28.5813446 C25.79297047 26.77214595 23.99859306 24.96028103 22.20733643 23.14533997 C17.8174238 18.72077464 13.36738124 14.44855176 8.63031006 10.39611816 C6.68277268 8.72834197 4.8234259 6.98982144 3 5.1875 C2.4225 4.62417969 1.845 4.06085938 1.25 3.48046875 C0 2 0 2 0 0 Z " fill="#F08D35" transform="translate(213,216)"/>
<path d="M0 0 C0.89017822 0.7741626 1.78035645 1.5483252 2.69750977 2.34594727 C5.047836 4.38254644 7.42592986 6.32611552 9.89620972 8.21749878 C31.39703512 24.71413708 31.39703512 24.71413708 33.74540138 37.64931679 C34.96194507 47.40592989 34.37433785 57.24203797 33.71661377 67.02020264 C33.45622771 71.31559299 33.34575222 75.61493579 33.22070312 79.91601562 C32.95613043 88.28780785 32.53243883 96.64097604 32 105 C30.72550079 104.05952693 29.45312707 103.1161731 28.18164062 102.17163086 C27.11846619 101.38410683 27.11846619 101.38410683 26.03381348 100.58067322 C23.29110464 98.44904883 20.90854557 96.06172877 18.5 93.5625 C14.76305607 89.73203506 10.9477886 86.07941684 6.8515625 82.6328125 C6.24054688 82.09398437 5.62953125 81.55515625 5 81 C4.14851883 80.29692215 3.29703766 79.5938443 2.41975403 78.86946106 C-0.54945757 75.34842671 -0.68180858 72.85554545 -0.56762695 68.45581055 C-0.56835709 67.71380905 -0.56908722 66.97180756 -0.56983948 66.20732117 C-0.56636916 63.76636427 -0.5275385 61.32734023 -0.48828125 58.88671875 C-0.47895104 57.18993675 -0.47183591 55.49314125 -0.46684265 53.79634094 C-0.44778894 49.33916775 -0.39870285 44.88281449 -0.34332275 40.42596436 C-0.29209474 35.87458385 -0.26932107 31.32307033 -0.24414062 26.77148438 C-0.19058199 17.8472968 -0.10528938 8.92371669 0 0 Z " fill="#EFE549" transform="translate(275,278)"/>
</svg>
