<?xml version="1.0" encoding="UTF-8"?>
<svg version="1.1" xmlns="http://www.w3.org/2000/svg" width="160" height="58">
<path d="M0 0 C27.06 0 54.12 0 82 0 C82 13.65187347 79.22238542 25.41032087 74 38 C76.52332152 37.17850995 76.52332152 37.17850995 79 35 C80.34185155 31.74496168 81.20924603 28.42660055 82 25 C84.31 24.67 86.62 24.34 89 24 C89 24.99 89 25.98 89 27 C89.556875 26.505 90.11375 26.01 90.6875 25.5 C93.38162983 23.75245633 94.85375007 23.73781251 98 24 C99.81975482 29.12839994 97.8599099 33.17684382 96 38 C96.99 38 97.98 38 99 38 C99 37.34 99 36.68 99 36 C99.99 35.67 100.98 35.34 102 35 C101.66902062 38.08914085 100.99715301 39.0026931 98.6875 41.1875 C94.64812576 43.91172914 94.64812576 43.91172914 92 44 C90.36328125 42.828125 90.36328125 42.828125 89 41 C88.92578125 38.51953125 88.92578125 38.51953125 89.3125 35.8125 C89.43238281 34.91144531 89.55226563 34.01039062 89.67578125 33.08203125 C89.83626953 32.05142578 89.83626953 32.05142578 90 31 C87.2289312 33.34591852 86.47940716 35.14776201 85.8125 38.6875 C85.57466797 39.89986328 85.57466797 39.89986328 85.33203125 41.13671875 C85.22246094 41.75160156 85.11289063 42.36648437 85 43 C83.35 43.33 81.7 43.66 80 44 C79.505 42.02 79.505 42.02 79 40 C78.0925 40.680625 77.185 41.36125 76.25 42.0625 C73 44 73 44 70.75 43.875 C69 43 69 43 67 41 C66.45472656 41.53109375 65.90945312 42.0621875 65.34765625 42.609375 C54.27277431 52.98379432 43.00163344 55.35951844 28.125 55.3125 C27.11308594 55.32861328 26.10117188 55.34472656 25.05859375 55.36132812 C16.85123382 55.36658252 9.08109287 54.47799349 1.95703125 50.15234375 C-4.2269808 43.35116483 -4.38880748 33.29939282 -4.5 24.5625 C-4.51844971 23.72984619 -4.53689941 22.89719238 -4.5559082 22.03930664 C-4.4758967 13.81238172 -2.43245859 8.51360507 0 0 Z " fill="#F6993B" transform="translate(57,0)"/>
<path d="M0 0 C9.4518047 5.40103125 16.05035162 11.03177202 19.0625 21.75 C19.27353169 24.44407984 19.38771909 26.99868527 19.375 29.6875 C19.39111328 30.36490234 19.40722656 31.04230469 19.42382812 31.74023438 C19.42875135 36.87516266 18.39505918 40.28113061 16.0625 44.75 C10.45383965 49.29756245 2.99644563 49.33688568 -3.9375 48.75 C-12.88984931 47.24518915 -18.83038431 43.85711569 -25.1875 37.5 C-30.13285713 29.72872451 -32.40175062 21.9811452 -30.9375 12.75 C-28.72346465 7.05003665 -24.82978874 3.2596854 -19.9375 -0.25 C-13.94255502 -2.24831499 -5.91670334 -2.44645711 0 0 Z " fill="#3398CC" transform="translate(31.9375,6.25)"/>
<path d="M0 0 C-0.03386493 8.2630438 -2.16396078 13.16396078 -8 19 C-8.04092937 21.33297433 -8.04241723 23.66705225 -8 26 C-3.58477891 24.73025028 -3.58477891 24.73025028 0 22 C0.6496875 20.329375 0.6496875 20.329375 1.3125 18.625 C3.11525239 14.75242079 4.2875682 13.07205496 8 11 C11.3125 11.25 11.3125 11.25 14 12 C14.33 13.65 14.66 15.3 15 17 C12.31158141 19.25245881 10.35358125 20.88213958 7 22 C7 22.99 7 23.98 7 25 C11.05661471 25.3764319 11.05661471 25.3764319 14.6875 23.875 C16.14490266 21.89609738 16.14490266 21.89609738 17.4375 19.0625 C19.03741232 15.92667186 20.19066965 14.10699777 23 12 C26.89430952 11.11182414 29.19426871 10.7314229 33 12 C35.14255793 11.61067144 35.14255793 11.61067144 37 11 C36.86722656 11.58007812 36.73445313 12.16015625 36.59765625 12.7578125 C35.60295999 17.15770982 34.68631668 21.53894158 34 26 C37.54293666 24.13529649 39.77228817 22.90635582 41 19 C41 17.96875 41 16.9375 41 15.875 C41 13 41 13 43 11 C43.99 11 44.98 11 46 11 C46.495 13.475 46.495 13.475 47 16 C47.78375 15.175 48.5675 14.35 49.375 13.5 C52 11 52 11 54 11 C53.00956295 15.83628305 52.04301154 20.47618873 50 25 C52.52332152 24.17850995 52.52332152 24.17850995 55 22 C56.34185155 18.74496168 57.20924603 15.42660055 58 12 C61.465 11.505 61.465 11.505 65 11 C65 11.99 65 12.98 65 14 C65.556875 13.505 66.11375 13.01 66.6875 12.5 C69.38162983 10.75245633 70.85375007 10.73781251 74 11 C75.81975482 16.12839994 73.8599099 20.17684382 72 25 C72.99 25 73.98 25 75 25 C75 24.34 75 23.68 75 23 C75.99 22.67 76.98 22.34 78 22 C77.66902062 25.08914085 76.99715301 26.0026931 74.6875 28.1875 C70.64812576 30.91172914 70.64812576 30.91172914 68 31 C66.36328125 29.828125 66.36328125 29.828125 65 28 C64.92578125 25.51953125 64.92578125 25.51953125 65.3125 22.8125 C65.43238281 21.91144531 65.55226563 21.01039062 65.67578125 20.08203125 C65.78277344 19.39496094 65.88976562 18.70789063 66 18 C63.2289312 20.34591852 62.47940716 22.14776201 61.8125 25.6875 C61.57466797 26.89986328 61.57466797 26.89986328 61.33203125 28.13671875 C61.22246094 28.75160156 61.11289063 29.36648437 61 30 C59.35 30.33 57.7 30.66 56 31 C55.505 29.02 55.505 29.02 55 27 C54.0925 27.680625 53.185 28.36125 52.25 29.0625 C49 31 49 31 46.625 30.75 C46.08875 30.5025 45.5525 30.255 45 30 C43.84162374 25.94568308 44.16308743 23.78187881 46 20 C45.34 20 44.68 20 44 20 C42.29714205 21.72163399 42.29714205 21.72163399 40.5625 23.875 C38.41599116 26.46193722 36.83223438 28.11184374 34 30 C31.3125 29.625 31.3125 29.625 29 29 C28.505 27.515 28.505 27.515 28 26 C27.278125 26.680625 26.55625 27.36125 25.8125 28.0625 C23 30 23 30 20.3125 29.9375 C18 29 18 29 16 26 C15.13375 26.66 14.2675 27.32 13.375 28 C9.75125073 30.14740698 8.1167938 30.64039015 4 30 C2.125 28.625 2.125 28.625 1 27 C1 26.34 1 25.68 1 25 C0.55269531 25.3609375 0.10539062 25.721875 -0.35546875 26.09375 C-5.27200529 29.86763733 -5.27200529 29.86763733 -8.75 30.5 C-11.46657905 29.89631577 -12.26493989 29.14072205 -14 27 C-15.03927621 17.79498215 -12.4101135 7.5768844 -7 0 C-3.86650268 -1.04449911 -3.01031744 -0.93423645 0 0 Z " fill="#080502" transform="translate(81,13)"/>
<path d="M0 0 C0 0.99 0 1.98 0 3 C0.556875 2.505 1.11375 2.01 1.6875 1.5 C4.38162983 -0.24754367 5.85375007 -0.26218749 9 0 C10.81975482 5.12839994 8.8599099 9.17684382 7 14 C7.99 14 8.98 14 10 14 C10 13.34 10 12.68 10 12 C10.99 11.67 11.98 11.34 13 11 C12.66902062 14.08914085 11.99715301 15.0026931 9.6875 17.1875 C5.64812576 19.91172914 5.64812576 19.91172914 3 20 C1.36328125 18.828125 1.36328125 18.828125 0 17 C-0.07421875 14.51953125 -0.07421875 14.51953125 0.3125 11.8125 C0.43238281 10.91144531 0.55226562 10.01039062 0.67578125 9.08203125 C0.78277344 8.39496094 0.88976562 7.70789063 1 7 C-1.7710688 9.34591852 -2.52059284 11.14776201 -3.1875 14.6875 C-3.42533203 15.89986328 -3.42533203 15.89986328 -3.66796875 17.13671875 C-3.83232422 18.05904297 -3.83232422 18.05904297 -4 19 C-5.65 19.33 -7.3 19.66 -9 20 C-9.33 18.68 -9.66 17.36 -10 16 C-10.9075 16.680625 -11.815 17.36125 -12.75 18.0625 C-16 20 -16 20 -18.375 19.75 C-20 19 -20 19 -20.75 17 C-21.11718562 12.59377251 -19.42939653 9.61391595 -17 6 C-14.25 3.5 -14.25 3.5 -12 2 C-12.50797009 6.3177458 -13.19682779 10.03302114 -15 14 C-12.47667848 13.17850995 -12.47667848 13.17850995 -10 11 C-9.03341686 8.41681712 -8.37401989 5.87060859 -7.7734375 3.1796875 C-7.51820313 2.46039062 -7.26296875 1.74109375 -7 1 C-4 0 -4 0 0 0 Z " fill="#010100" transform="translate(146,24)"/>
<path d="M0 0 C1.60875 0.2784375 1.60875 0.2784375 3.25 0.5625 C6.51946406 0.94393747 7.99327978 0.89802485 11 0 C10.86722656 0.58007812 10.73445313 1.16015625 10.59765625 1.7578125 C9.60295999 6.15770982 8.68631668 10.53894158 8 15 C11.54293666 13.13529649 13.77228817 11.90635582 15 8 C15 6.96875 15 5.9375 15 4.875 C15 2 15 2 17 0 C17.99 0 18.98 0 20 0 C20.12375 0.804375 20.2475 1.60875 20.375 2.4375 C20.58125 3.283125 20.7875 4.12875 21 5 C21.66 5.33 22.32 5.66 23 6 C22.67 6.66 22.34 7.32 22 8 C21.39285156 8.12503906 20.78570312 8.25007813 20.16015625 8.37890625 C17.27628746 9.20808371 16.30680149 10.62491896 14.4375 12.9375 C12.32468481 15.53028657 10.82453714 17.11697524 8 19 C5.3125 18.625 5.3125 18.625 3 18 C2.67 17.01 2.34 16.02 2 15 C1.01 15.495 1.01 15.495 0 16 C-2.125 15.0625 -2.125 15.0625 -4 14 C-4.56561146 8.34388537 -2.71391278 4.77357872 0 0 Z M26 0 C26.66 0 27.32 0 28 0 C28 0.66 28 1.32 28 2 C26.02 2.99 26.02 2.99 24 4 C24.66 2.68 25.32 1.36 26 0 Z " fill="#0F0903" transform="translate(107,24)"/>
<path d="M0 0 C-0.03386493 8.2630438 -2.16396078 13.16396078 -8 19 C-8.04092937 21.33297433 -8.04241723 23.66705225 -8 26 C-4.535 25.505 -4.535 25.505 -1 25 C-5.25 29.85714286 -5.25 29.85714286 -8.625 30.5 C-11.440212 29.90732379 -12.21684471 29.21252696 -14 27 C-15.03927621 17.79498215 -12.4101135 7.5768844 -7 0 C-3.86650268 -1.04449911 -3.01031744 -0.93423645 0 0 Z " fill="#0F0903" transform="translate(81,13)"/>
<path d="M0 0 C-1.875 4.75 -1.875 4.75 -3 7 C-3.039992 8.99960012 -3.04346799 11.00047242 -3 13 C-2.01 13.33 -1.02 13.66 0 14 C-0.33 14.99 -0.66 15.98 -1 17 C-2.98 17.33 -4.96 17.66 -7 18 C-7.99 16.68 -8.98 15.36 -10 14 C-12.475 15.485 -12.475 15.485 -15 17 C-15 16.34 -15 15.68 -15 15 C-15.99 14.67 -16.98 14.34 -18 14 C-17.071875 13.773125 -16.14375 13.54625 -15.1875 13.3125 C-11.32109753 11.72045192 -10.92845155 10.61584665 -9 7 C-8.03232149 5.70438599 -7.02977151 4.43433119 -6 3.1875 C-5.505 2.58292969 -5.01 1.97835938 -4.5 1.35546875 C-3 0 -3 0 0 0 Z " fill="#080502" transform="translate(107,25)"/>
<path d="M0 0 C1.32 0.33 2.64 0.66 4 1 C3.05528846 9.1875 3.05528846 9.1875 1 12 C-1.0625 12.8125 -1.0625 12.8125 -3 13 C-4 12 -4 12 -4.3125 9.3125 C-3.92929614 5.25053907 -2.4421517 3.20532411 0 0 Z " fill="#EC9136" transform="translate(107,26)"/>
<path d="M0 0 C2.97 0.495 2.97 0.495 6 1 C6.33 2.65 6.66 4.3 7 6 C2.69230769 9.93846154 2.69230769 9.93846154 -0.8125 10.25 C-1.534375 10.1675 -2.25625 10.085 -3 10 C-2.39009109 6.44219804 -1.4216319 3.3171411 0 0 Z " fill="#1C1106" transform="translate(89,24)"/>
<path d="M0 0 C5.75 -0.125 5.75 -0.125 8 1 C8.144375 1.639375 8.28875 2.27875 8.4375 2.9375 C8.86165035 5.38210855 8.86165035 5.38210855 12 7 C9.36 6.67 6.72 6.34 4 6 C4 5.34 4 4.68 4 4 C2.68 3.67 1.36 3.34 0 3 C0 2.01 0 1.02 0 0 Z " fill="#FBD0A4" transform="translate(89,10)"/>
<path d="M0 0 C0.66 0 1.32 0 2 0 C2 0.66 2 1.32 2 2 C2.99 1.67 3.98 1.34 5 1 C5 3.64 5 6.28 5 9 C5.66 9.33 6.32 9.66 7 10 C6.401875 9.814375 5.80375 9.62875 5.1875 9.4375 C2.83591238 8.77906313 2.83591238 8.77906313 0 10 C0 6.7 0 3.4 0 0 Z " fill="#FBD4AD" transform="translate(114,7)"/>
<path d="M0 0 C0.33 0 0.66 0 1 0 C1.49940808 6.11774896 0.24900602 9.02495953 -3 14 C-4.16516703 10.60548006 -3.83093313 8.65924103 -2.625 5.3125 C-2.34914063 4.52488281 -2.07328125 3.73726562 -1.7890625 2.92578125 C-1 1 -1 1 0 0 Z " fill="#E08A33" transform="translate(78,14)"/>
<path d="M0 0 C0.99 0 1.98 0 3 0 C2.75 2.375 2.75 2.375 2 5 C-0.0625 6.3125 -0.0625 6.3125 -2 7 C-1.125 1.125 -1.125 1.125 0 0 Z " fill="#EB9136" transform="translate(89,26)"/>
<path d="M0 0 C0.99 0.33 1.98 0.66 3 1 C3 3.31 3 5.62 3 8 C1.68 7.01 0.36 6.02 -1 5 C-0.67 3.35 -0.34 1.7 0 0 Z " fill="#F79F46" transform="translate(111,9)"/>
<path d="M0 0 C0.33 0.66 0.66 1.32 1 2 C-0.65 3.65 -2.3 5.3 -4 7 C-4.33 6.34 -4.66 5.68 -5 5 C-5.99 4.67 -6.98 4.34 -8 4 C-6.576875 3.566875 -6.576875 3.566875 -5.125 3.125 C-1.94788422 2.23174891 -1.94788422 2.23174891 0 0 Z " fill="#291909" transform="translate(97,35)"/>
</svg>
