<?xml version="1.0" encoding="UTF-8"?>
<svg version="1.1" xmlns="http://www.w3.org/2000/svg" width="2181" height="1276">
<path d="M0 0 C1.11181641 -0.02513672 1.11181641 -0.02513672 2.24609375 -0.05078125 C5.9222085 0.52574265 8.49496604 2.00128589 10.86949158 4.91783142 C12.30544443 6.98979924 13.66801053 9.09606524 15.015625 11.2265625 C16.08055031 12.86675006 17.14633803 14.50637795 18.21289062 16.14550781 C18.76340088 16.99794067 19.31391113 17.85037354 19.88110352 18.7286377 C22.6121418 22.92552221 25.42452992 27.06658294 28.234375 31.2109375 C29.3921701 32.92431498 30.549718 34.63785952 31.70703125 36.3515625 C32.29436035 37.22071289 32.88168945 38.08986328 33.48681641 38.98535156 C43.70371767 54.10713054 53.88010954 69.25454244 63.98477173 84.45153809 C74.04415179 99.57751288 84.20538086 114.63426898 94.38476562 129.6796875 C94.98954239 130.57448822 95.59431915 131.46928894 96.21742249 132.39120483 C97.35737378 134.07779403 98.4983091 135.76371867 99.6403656 137.44888306 C100.14439407 138.19487762 100.64842255 138.94087219 101.16772461 139.70947266 C101.60829697 140.36033844 102.04886932 141.01120422 102.50279236 141.68179321 C103.5625 143.3125 103.5625 143.3125 104.5625 145.3125 C108.88250636 144.69046341 112.1981494 143.14342479 116.05859375 141.13671875 C116.67944351 140.81580765 117.30029327 140.49489655 117.93995667 140.16426086 C119.9633577 139.1158834 121.98173556 138.05822771 124 137 C125.41325604 136.26467518 126.82666899 135.52965185 128.24023438 134.79492188 C136.93009304 130.26720341 145.55469912 125.63000228 154.13256836 120.89331055 C162.69989278 116.18440138 171.39433006 111.73240337 180.09228516 107.27148438 C188.30854307 103.0551684 196.47790885 98.77804048 204.5625 94.3125 C213.31300462 89.47914085 222.16856041 84.8741197 231.0625 80.3125 C240.20412329 75.62333229 249.30729802 70.8857786 258.3125 65.9375 C259.61465454 65.22243286 259.61465454 65.22243286 260.94311523 64.49291992 C261.79075439 64.02732666 262.63839355 63.5617334 263.51171875 63.08203125 C268.69994535 60.23238746 273.90255217 57.41144681 279.125 54.625 C279.90520508 54.20234863 280.68541016 53.77969727 281.48925781 53.34423828 C290.23606302 48.70319508 290.23606302 48.70319508 295.1875 50 C298.0346845 51.57344406 299.18873242 52.33600359 300.5625 55.3125 C300.6611692 62.26841942 298.30199248 68.38424428 295.72265625 74.73046875 C295.13244942 76.22138283 295.13244942 76.22138283 294.53031921 77.74241638 C293.23860771 80.99904824 291.93175134 84.24937742 290.625 87.5 C289.71464412 89.78843219 288.80548121 92.07733928 287.89746094 94.36669922 C286.03332805 99.06415159 284.16423528 103.7595826 282.29150391 108.45361328 C278.62595425 117.65223235 275.02108699 126.8743783 271.42080688 136.09869385 C269.93886331 139.89452928 268.45398018 143.68921218 266.96922302 147.48394775 C260.80636812 163.23637658 254.65805284 178.99448362 248.51123047 194.75317383 C246.19812473 200.68331376 243.88441874 206.61321917 241.5703125 212.54296875 C241.23941116 213.39091507 240.90850983 214.23886139 240.56758118 215.11250305 C238.90593365 219.37044166 237.2440562 223.62829033 235.58178711 227.88598633 C232.49474252 235.79377267 229.40976253 243.70234435 226.33236694 251.6138916 C224.90006891 255.29573654 223.46655589 258.97710791 222.03295898 262.65844727 C221.35885387 264.390472 220.68532463 266.12272101 220.01245117 267.85522461 C218.17635324 272.58255789 216.330773 277.30592211 214.46679688 282.02233887 C213.85260508 283.5777995 213.24087336 285.13423331 212.63134766 286.69152832 C211.72063841 289.01174221 210.79755201 291.32666153 209.87109375 293.640625 C209.46823402 294.67497681 209.46823402 294.67497681 209.05723572 295.73022461 C205.65190419 304.13975657 199.58446677 311.39542533 191.28344727 315.3347168 C188.15057263 316.46052773 185.25369761 316.90480496 181.94921875 317.31640625 C181.29917374 317.39782364 180.64912872 317.47924103 179.97938538 317.56312561 C73.20964789 330.63878414 -35.3816719 330.11472805 -142.4375 321.3125 C-143.98603668 321.18554749 -143.98603668 321.18554749 -145.56585693 321.05603027 C-151.276996 320.58338901 -156.98519044 320.08648402 -162.69085693 319.55169678 C-164.36142668 319.39555275 -166.03235999 319.24323756 -167.70367432 319.09527588 C-191.66027777 316.94286911 -191.66027777 316.94286911 -199.9375 309.0625 C-200.7109375 308.35609375 -201.484375 307.6496875 -202.28125 306.921875 C-207.21577754 300.95038153 -209.72141609 293.31474175 -212.45703125 286.1484375 C-212.83203766 285.17614197 -213.20704407 284.20384644 -213.59341431 283.2020874 C-214.39719195 281.11716069 -215.19924667 279.03156907 -215.99972534 276.94537354 C-218.13469176 271.38223544 -220.28304704 265.82426644 -222.4296875 260.265625 C-222.85992722 259.15055573 -223.29016693 258.03548645 -223.73344421 256.8866272 C-227.40190672 247.38545567 -231.12376526 237.90624406 -234.875 228.4375 C-236.08887447 225.3712254 -237.3023628 222.30479816 -238.515625 219.23828125 C-238.82478851 218.45695328 -239.13395203 217.67562531 -239.45248413 216.87062073 C-243.69928831 206.13098035 -247.91070192 195.37742654 -252.125 184.625 C-252.75591049 183.01538895 -252.75591049 183.01538895 -253.39956665 181.3732605 C-255.11656204 176.99265535 -256.83345171 172.6120088 -258.55012512 168.23127747 C-261.96243278 159.52362925 -265.37676959 150.8167784 -268.79289246 142.11062622 C-270.87500849 136.80389751 -272.95567824 131.49661179 -275.03295898 126.18798828 C-278.79444798 116.57839795 -282.56598552 106.97333268 -286.38461304 97.38627625 C-288.08613077 93.11199984 -289.78022737 88.83480143 -291.47357178 84.55728149 C-292.27539863 82.53787841 -293.08087368 80.51991962 -293.89019775 78.50350952 C-295.00372559 75.72855755 -296.10472161 72.94893503 -297.203125 70.16796875 C-297.5332962 69.35481201 -297.86346741 68.54165527 -298.2036438 67.70385742 C-299.86869612 63.44928272 -301.01648085 59.96033362 -300.4375 55.3125 C-298.4375 52.4375 -298.4375 52.4375 -295.4375 50.3125 C-289.32701397 49.73409673 -285.38092192 50.80318951 -280.02734375 53.828125 C-279.00583977 54.37861008 -279.00583977 54.37861008 -277.96369934 54.94021606 C-275.75887212 56.13255668 -273.56729428 57.3472959 -271.375 58.5625 C-269.84307184 59.39579081 -268.31018469 60.22732091 -266.77636719 61.05712891 C-263.72673631 62.70839246 -260.68108826 64.3666508 -257.63818359 66.03027344 C-252.19654976 68.99726644 -246.69639205 71.84783489 -241.1875 74.6875 C-234.05220504 78.38826161 -226.97853679 82.18566951 -219.9375 86.0625 C-210.35172986 91.33905464 -200.64502454 96.35943549 -190.90991211 101.35241699 C-181.82243209 106.01580132 -172.81301186 110.78982948 -163.87207031 115.72998047 C-155.2255314 120.48221557 -146.44831393 124.97126529 -137.66940308 129.47216797 C-127.13787981 134.87521188 -116.71894425 140.44544814 -106.4375 146.3125 C-103.34863796 143.40897822 -101.0173963 140.41030883 -98.69140625 136.87109375 C-98.33243759 136.32844376 -97.97346893 135.78579376 -97.60362244 135.22669983 C-96.81629597 134.03573521 -96.03102618 132.84340904 -95.24755859 131.64990234 C-93.04115797 128.28978303 -90.8183696 124.94051351 -88.59765625 121.58984375 C-88.11467072 120.86030487 -87.63168518 120.13076599 -87.13406372 119.37911987 C-81.4135928 110.74837769 -75.61345197 102.17151465 -69.81600952 93.59237671 C-61.29700117 80.98568367 -52.78667015 68.37391891 -44.36230469 55.70373535 C-42.02047757 52.18296471 -39.6736172 48.665546 -37.32702637 45.14794922 C-34.95725783 41.59482833 -32.59129075 38.03922127 -30.22851562 34.48144531 C-27.37171639 30.18148422 -24.50491958 25.88832019 -21.63244629 21.59881592 C-20.51058379 19.920062 -19.39196056 18.23913844 -18.2767334 16.55596924 C-16.72420385 14.21381831 -15.16039047 11.87960234 -13.59375 9.546875 C-13.13111755 8.84321808 -12.66848511 8.13956116 -12.1918335 7.4145813 C-8.692435 2.24331615 -6.25552396 0.03252439 0 0 Z " fill="#FE4A4A" transform="translate(1091.4375,239.6875)"/>
<path d="M0 0 C1.11181641 -0.02513672 1.11181641 -0.02513672 2.24609375 -0.05078125 C5.9222085 0.52574265 8.49496604 2.00128589 10.86949158 4.91783142 C12.30544443 6.98979924 13.66801053 9.09606524 15.015625 11.2265625 C16.08055031 12.86675006 17.14633803 14.50637795 18.21289062 16.14550781 C18.76340088 16.99794067 19.31391113 17.85037354 19.88110352 18.7286377 C22.6121418 22.92552221 25.42452992 27.06658294 28.234375 31.2109375 C29.3921701 32.92431498 30.549718 34.63785952 31.70703125 36.3515625 C32.29436035 37.22071289 32.88168945 38.08986328 33.48681641 38.98535156 C43.70371767 54.10713054 53.88010954 69.25454244 63.98477173 84.45153809 C74.04415179 99.57751288 84.20538086 114.63426898 94.38476562 129.6796875 C94.98954239 130.57448822 95.59431915 131.46928894 96.21742249 132.39120483 C97.35737378 134.07779403 98.4983091 135.76371867 99.6403656 137.44888306 C100.39640831 138.56787491 100.39640831 138.56787491 101.16772461 139.70947266 C101.60829697 140.36033844 102.04886932 141.01120422 102.50279236 141.68179321 C103.5625 143.3125 103.5625 143.3125 104.5625 145.3125 C108.88250636 144.69046341 112.1981494 143.14342479 116.05859375 141.13671875 C116.67944351 140.81580765 117.30029327 140.49489655 117.93995667 140.16426086 C119.9633577 139.1158834 121.98173556 138.05822771 124 137 C125.41325604 136.26467518 126.82666899 135.52965185 128.24023438 134.79492188 C136.93009304 130.26720341 145.55469912 125.63000228 154.13256836 120.89331055 C162.69989278 116.18440138 171.39433006 111.73240337 180.09228516 107.27148438 C188.30854307 103.0551684 196.47790885 98.77804048 204.5625 94.3125 C213.31300462 89.47914085 222.16856041 84.8741197 231.0625 80.3125 C240.20412329 75.62333229 249.30729802 70.8857786 258.3125 65.9375 C259.61465454 65.22243286 259.61465454 65.22243286 260.94311523 64.49291992 C261.79075439 64.02732666 262.63839355 63.5617334 263.51171875 63.08203125 C268.69994535 60.23238746 273.90255217 57.41144681 279.125 54.625 C279.90520508 54.20234863 280.68541016 53.77969727 281.48925781 53.34423828 C290.23606302 48.70319508 290.23606302 48.70319508 295.1875 50 C298.0346845 51.57344406 299.18873242 52.33600359 300.5625 55.3125 C300.6611692 62.26841942 298.30199248 68.38424428 295.72265625 74.73046875 C295.32918503 75.72441147 294.93571381 76.71835419 294.53031921 77.74241638 C293.23860771 80.99904824 291.93175134 84.24937742 290.625 87.5 C289.71464412 89.78843219 288.80548121 92.07733928 287.89746094 94.36669922 C286.03332805 99.06415159 284.16423528 103.7595826 282.29150391 108.45361328 C278.62595425 117.65223235 275.02108699 126.8743783 271.42080688 136.09869385 C269.93886331 139.89452928 268.45398018 143.68921218 266.96922302 147.48394775 C260.80636812 163.23637658 254.65805284 178.99448362 248.51123047 194.75317383 C246.19812473 200.68331376 243.88441874 206.61321917 241.5703125 212.54296875 C241.23941116 213.39091507 240.90850983 214.23886139 240.56758118 215.11250305 C238.90593365 219.37044166 237.2440562 223.62829033 235.58178711 227.88598633 C232.49474252 235.79377267 229.40976253 243.70234435 226.33236694 251.6138916 C224.90006891 255.29573654 223.46655589 258.97710791 222.03295898 262.65844727 C221.35885387 264.390472 220.68532463 266.12272101 220.01245117 267.85522461 C217.87919074 273.34765119 215.73074817 278.83378913 213.5625 284.3125 C213.25023468 285.10389374 212.93796936 285.89528748 212.61624146 286.71066284 C211.68978507 289.04873783 210.75290551 291.38234921 209.8125 293.71484375 C209.53607162 294.41436157 209.25964325 295.11387939 208.97483826 295.83459473 C206.89877167 300.93314634 204.53432179 304.53442561 200.5625 308.3125 C196.7449391 307.71157574 193.79371353 306.58732712 190.37890625 304.79296875 C189.38068848 304.27162354 188.3824707 303.75027832 187.35400391 303.21313477 C186.28843262 302.64780029 185.22286133 302.08246582 184.125 301.5 C183.01044434 300.91468506 181.89588867 300.32937012 180.74755859 299.72631836 C172.79432801 295.53514765 164.89966799 291.24131041 157.02246094 286.90942383 C146.32673329 281.04826486 135.47243055 275.49353501 124.63476562 269.90087891 C113.91782985 264.36016179 103.26808647 258.69594326 92.64086914 252.98535156 C91.7589238 252.51143982 91.7589238 252.51143982 90.85916138 252.0279541 C89.66125611 251.38424763 88.46340048 250.74044878 87.26559448 250.09655762 C78.44703083 245.35881307 69.58578883 240.71182568 60.6875 236.125 C52.59020001 231.95077442 44.54300178 227.70598009 36.5625 223.3125 C25.02907292 216.96342444 13.33364808 210.93795671 1.63476562 204.90087891 C-10.97724639 198.38039653 -23.49246056 191.68008572 -36.00091553 184.96380615 C-46.88787437 179.12022466 -57.82919991 173.38507754 -68.79296875 167.68701172 C-80.80610036 161.44311115 -92.74427358 155.14149683 -104.4375 148.3125 C-104.4375 144.27283345 -102.90141876 142.65947232 -100.64453125 139.3125 C-100.03086449 138.39631645 -100.03086449 138.39631645 -99.40480042 137.46162415 C-98.02641914 135.40742689 -96.63820096 133.36007149 -95.25 131.3125 C-94.26648735 129.8509098 -93.28359179 128.38890419 -92.30126953 126.92651367 C-89.59947492 122.90834666 -86.88890293 118.89617208 -84.17645264 114.88519287 C-81.18795079 110.46385487 -78.20567956 106.03831654 -75.22265625 101.61328125 C-71.50039628 96.09249424 -67.77731553 90.57226706 -64.05102539 85.05419922 C-57.45929119 75.29116557 -50.88667558 65.51628116 -44.36431885 55.70675659 C-42.02182521 52.18499764 -39.67430927 48.66658339 -37.32705688 45.147995 C-34.95727819 41.59485884 -32.59130089 38.03923655 -30.22851562 34.48144531 C-27.37171639 30.18148422 -24.50491958 25.88832019 -21.63244629 21.59881592 C-20.51058379 19.920062 -19.39196056 18.23913844 -18.2767334 16.55596924 C-16.72420385 14.21381831 -15.16039047 11.87960234 -13.59375 9.546875 C-12.89980133 8.49138962 -12.89980133 8.49138962 -12.1918335 7.4145813 C-8.692435 2.24331615 -6.25552396 0.03252439 0 0 Z " fill="#BD4042" transform="translate(1091.4375,239.6875)"/>
<path d="M0 0 C7.34673595 6.2812734 13.24812914 14.62125828 17.5625 23.25 C17.5625 23.91 17.5625 24.57 17.5625 25.25 C20.50850288 22.60780367 22.4183042 19.49444904 24.5625 16.1875 C35.28180017 0.43364328 50.81924247 -8.65265059 69.09765625 -13.09375 C90.21270762 -17.0929931 113.58172261 -15.93957824 132.1171875 -4.12109375 C134.38325045 -2.43134785 136.47411487 -0.65423109 138.5625 1.25 C139.32175781 1.91773438 140.08101562 2.58546875 140.86328125 3.2734375 C156.42240608 17.76042095 161.86179978 39.04129303 162.8304348 59.67346764 C162.95911287 64.08965485 162.93539223 68.50323322 162.90307617 72.9206543 C162.90222667 74.58846013 162.90271132 76.25626708 162.90440369 77.92407227 C162.90525248 82.38365106 162.88781117 86.84297993 162.86668181 91.30250144 C162.84772544 95.98826003 162.84614983 100.67402649 162.84260559 105.3598175 C162.83334013 114.2026061 162.80880212 123.04528131 162.77855712 131.88802034 C162.74484023 141.96805963 162.72848396 152.04810479 162.71347082 162.12818658 C162.6822466 182.83553475 162.62730473 203.54272782 162.5625 224.25 C150.3525 224.25 138.1425 224.25 125.5625 224.25 C125.5531543 219.33544922 125.54380859 214.42089844 125.53417969 209.35742188 C125.50034946 193.0845419 125.44496569 176.81178733 125.37859726 160.53900909 C125.33889689 150.67688243 125.30645887 140.81483452 125.29150391 130.95263672 C125.27844052 122.350285 125.25135718 113.74810723 125.20788693 105.14585352 C125.18537693 100.59685405 125.16958298 96.04806828 125.17061615 91.49900818 C125.17136901 87.20446166 125.15317094 82.91038565 125.12133217 78.61596107 C125.11291506 77.0520728 125.11102648 75.48813122 125.11669731 73.92423058 C125.16281691 59.23168625 123.63280553 43.78303147 113.5625 32.25 C102.964836 22.22884892 89.86180968 19.12387599 75.5625 19.25 C61.73085508 20.0965269 49.42463255 24.21694661 39.5625 34.25 C31.76802465 44.10903888 27.47187239 55.49646706 27.40428162 68.03938293 C27.39934364 68.70927409 27.39440566 69.37916525 27.38931805 70.06935614 C27.37400154 72.30640755 27.36559837 74.54343039 27.35717773 76.78051758 C27.34759461 78.38714853 27.33758427 79.99377699 27.32717896 81.60040283 C27.30017092 85.95738981 27.27913917 90.31438757 27.25917697 94.67141175 C27.2372921 99.22649231 27.20991565 103.78153978 27.18312073 108.33659363 C27.13322766 116.96019703 27.08827627 125.58381884 27.04509836 134.2074582 C26.99569705 144.0260307 26.94078965 153.84457 26.88541877 163.66311038 C26.7716507 183.85871078 26.66552724 204.05434175 26.5625 224.25 C14.0225 224.25 1.4825 224.25 -11.4375 224.25 C-11.4468457 219.19856689 -11.45619141 214.14713379 -11.46582031 208.94262695 C-11.49961888 192.23466629 -11.55498425 175.52682818 -11.62140274 158.81896687 C-11.66113944 148.69107627 -11.69355916 138.56326278 -11.70849609 128.43530273 C-11.72154049 119.60335317 -11.74857608 110.77157364 -11.79211307 101.93971986 C-11.81466532 97.26729715 -11.83041444 92.59508366 -11.82938385 87.9226017 C-11.82863353 83.5156221 -11.84673214 79.1091039 -11.87866783 74.7022438 C-11.88711628 73.09355591 -11.88895153 71.48481596 -11.88330269 69.8761158 C-11.83889392 55.27265501 -14.1137884 42.46953706 -24.1796875 31.3203125 C-33.56060945 22.25079045 -46.51163172 19.13123205 -59.25390625 19.30078125 C-73.58289591 20.21475941 -86.31083 26.49008673 -96.03125 37.07421875 C-98.70309396 40.60053229 -100.9028224 44.14119037 -102.9375 48.0625 C-103.40929688 48.96645508 -103.40929688 48.96645508 -103.890625 49.88867188 C-109.26431645 61.23705973 -109.88496699 73.63376037 -109.86987305 85.97607422 C-109.87891561 87.4953693 -109.88924882 89.01465714 -109.90075684 90.53393555 C-109.92806065 94.61150879 -109.93757463 98.68894265 -109.94361091 102.76659536 C-109.95306478 107.04538975 -109.97927316 111.32408281 -110.00361633 115.60281372 C-110.04709372 123.68425087 -110.0757554 131.76566813 -110.09893972 139.84718621 C-110.12609265 149.05658445 -110.16999745 158.2658798 -110.21522844 167.47520423 C-110.3078057 186.40009506 -110.37739842 205.32497625 -110.4375 224.25 C-122.6475 224.25 -134.8575 224.25 -147.4375 224.25 C-147.4375 146.37 -147.4375 68.49 -147.4375 -11.75 C-135.5575 -11.75 -123.6775 -11.75 -111.4375 -11.75 C-111.4375 0.46 -111.4375 12.67 -111.4375 25.25 C-108.65139152 22.46389152 -107.5542717 20.69877292 -105.875 17.25 C-98.01427896 2.62944514 -85.49302851 -6.71616597 -69.859375 -11.78515625 C-45.60237307 -18.62474469 -20.37899302 -15.1107394 0 0 Z " fill="#252630" transform="translate(1434.4375,805.75)"/>
<path d="M0 0 C31.19235285 -0.68933376 61.78842789 8.14537705 85.265625 29.125 C86.21501953 29.93324219 86.21501953 29.93324219 87.18359375 30.7578125 C102.23007454 44.46147235 108.48727804 64.56318345 110.265625 84.125 C97.725625 84.125 85.185625 84.125 72.265625 84.125 C70.615625 78.845 68.965625 73.565 67.265625 68.125 C59.21731905 53.26658901 47.12828443 44.73843517 31.14453125 39.76953125 C7.62654367 33.07625821 -18.84916547 34.06629985 -40.66796875 45.6875 C-52.85558264 52.98992607 -60.96884124 62.38985008 -65.109375 76.125 C-67.23171022 86.84721438 -65.87586913 97.94004477 -60.37890625 107.4765625 C-58.93372475 109.48354377 -57.40153045 111.29964731 -55.734375 113.125 C-55.25613281 113.70507812 -54.77789062 114.28515625 -54.28515625 114.8828125 C-39.1410745 131.89606303 -11.8294004 136.51497013 9.015625 142.0625 C83.43726434 161.88222699 83.43726434 161.88222699 104.265625 194.125 C115.31356371 214.29531077 117.1144839 237.06310422 111.265625 259.125 C109.86892767 263.28042219 108.19430622 267.1907101 106.265625 271.125 C105.82347656 272.04796875 105.38132812 272.9709375 104.92578125 273.921875 C96.67903366 290.09555171 83.87223547 301.30133729 68.265625 310.125 C67.46769531 310.58648438 66.66976562 311.04796875 65.84765625 311.5234375 C52.7255931 318.61522378 37.95004592 322.16803475 23.265625 324.125 C22.58927002 324.2192627 21.91291504 324.31352539 21.21606445 324.41064453 C-12.53093667 328.68784068 -50.54485353 323.64642364 -78.4375 302.9609375 C-97.27935193 287.90027355 -109.20961398 269.25385184 -112.734375 245.125 C-112.734375 242.815 -112.734375 240.505 -112.734375 238.125 C-99.534375 238.125 -86.334375 238.125 -72.734375 238.125 C-71.414375 243.075 -70.094375 248.025 -68.734375 253.125 C-60.85676739 269.56522457 -49.57162583 277.96046081 -32.76708984 284.41308594 C-27.5435624 286.24251256 -22.18772241 287.26321944 -16.734375 288.125 C-15.97253906 288.25519531 -15.21070313 288.38539063 -14.42578125 288.51953125 C8.6382872 291.78948424 35.02369052 287.56466812 54.265625 274.125 C64.81263557 265.95667692 72.76065919 255.50057213 75.265625 242.125 C76.08879097 229.26471856 75.37980831 218.26889749 66.87890625 207.890625 C49.03172809 188.35812009 18.62663701 183.34123075 -5.6706543 176.43669128 C-76.38921584 156.33067488 -76.38921584 156.33067488 -95.546875 125.25 C-105.57813607 107.0451188 -107.05351383 86.17915754 -101.69921875 66.27734375 C-94.55017526 42.89314879 -78.92887826 25.785467 -57.734375 14.0625 C-39.80122865 4.53294138 -20.12882573 0.92017489 0 0 Z " fill="#252630" transform="translate(354.734375,710.875)"/>
<path d="M0 0 C25.32687151 21.54674144 35.39342688 50.74676875 38.625 83.0625 C38.625 93.2925 38.625 103.5225 38.625 114.0625 C-17.805 114.0625 -74.235 114.0625 -132.375 114.0625 C-128.44791026 137.62503841 -124.35206407 161.9441019 -103.91796875 176.85546875 C-85.49302268 189.21784315 -64.41586574 192.57465087 -42.75 189.0625 C-28.59318365 185.83882109 -15.63777708 178.79220681 -7.5625 166.5625 C-5.06249635 162.52448935 -3.17967168 158.44140306 -1.375 154.0625 C7.28305467 156.17393295 15.91055853 158.37332678 24.5 160.75 C25.66764893 161.07133911 25.66764893 161.07133911 26.85888672 161.39916992 C32.37710639 162.93855319 32.37710639 162.93855319 34.625 164.0625 C33.25480927 175.50966302 26.19202503 185.69894602 18.625 194.0625 C17.95984375 194.82046875 17.2946875 195.5784375 16.609375 196.359375 C0.89705615 213.23556932 -23.91902809 223.02616324 -46.69799805 224.23950195 C-78.39547392 224.8043629 -109.18801218 221.17020911 -133.16235352 198.27929688 C-134.57862643 196.8858477 -135.97700105 195.47428204 -137.375 194.0625 C-138.24898437 193.21042969 -139.12296875 192.35835937 -140.0234375 191.48046875 C-153.89132011 177.24988767 -162.2963566 157.26440756 -166.375 138.0625 C-166.52598145 137.36012207 -166.67696289 136.65774414 -166.83251953 135.93408203 C-174.36353902 99.14013675 -169.76741585 56.79705958 -148.85253906 24.93969727 C-145.15243871 19.52459259 -140.93458021 14.75782953 -136.375 10.0625 C-135.69050781 9.30453125 -135.00601563 8.5465625 -134.30078125 7.765625 C-101.03968375 -27.8932226 -37.65525878 -29.21629043 0 0 Z M-110.9921875 32.5859375 C-124.33776344 46.45658528 -130.48544486 63.16694858 -132.375 82.0625 C-88.485 82.0625 -44.595 82.0625 0.625 82.0625 C0.625 63.04840384 -3.52467104 46.2358813 -17.1328125 32.23828125 C-17.87273437 31.52027344 -18.61265625 30.80226563 -19.375 30.0625 C-20.01179688 29.41667969 -20.64859375 28.77085937 -21.3046875 28.10546875 C-46.28638315 4.31584571 -87.38805705 10.46168983 -110.9921875 32.5859375 Z " fill="#252630" transform="translate(968.375,810.9375)"/>
<path d="M0 0 C0.99386719 0.44085937 1.98773437 0.88171875 3.01171875 1.3359375 C18.91511297 9.18554435 29.9831578 23.56671711 36 40 C40.45804934 55.18155874 41.15345848 70.30688666 41.11352539 86.04980469 C41.11324269 87.62790932 41.11340288 89.20601409 41.1139679 90.78411865 C41.11425262 95.03121824 41.10840879 99.27828908 41.10139394 103.52538204 C41.09510595 107.97763355 41.09455232 112.42988585 41.09336853 116.88214111 C41.09027118 125.2965816 41.08207947 133.71100897 41.07201904 142.1254437 C41.06080812 151.71199485 41.05533495 161.29854666 41.05032361 170.88510275 C41.03989539 190.59007743 41.02156994 210.29503414 41 230 C28.79 230 16.58 230 4 230 C4 219.77 4 209.54 4 199 C1.3502391 201.6497609 -0.52041299 204.11722801 -2.625 207.1875 C-14.23564492 223.17317054 -31.6296703 231.40010965 -50.625 235.3125 C-73.91380821 238.57230626 -99.68823889 235.53416169 -119.41796875 221.95703125 C-135.07549957 210.08952302 -145.13157981 195.45078622 -148.09936523 175.72705078 C-150.51163443 156.78357988 -147.84970868 138.75460324 -136 123.41015625 C-111.68095133 94.53128596 -65.2692334 93.89779269 -30.54443359 89.7409668 C-14.48537954 88.33636064 -14.48537954 88.33636064 0 82 C4.47180965 75.29228553 3.21043235 66.51785532 2 59 C-0.86847141 47.11633273 -5.96576585 38.17870488 -16 31 C-25.1456737 26.14719355 -34.94742483 24.62216804 -45.1875 24.6875 C-46.10587646 24.69241455 -47.02425293 24.6973291 -47.97045898 24.70239258 C-66.57251724 25.02011189 -82.58638872 31.06718187 -96.1328125 44.04296875 C-100.29191443 48.5531637 -103.25402698 53.53336246 -106 59 C-112.42309428 58.10156756 -118.22589728 55.95348878 -124.30566406 53.76196289 C-126.25568817 53.06045372 -128.20957731 52.3706089 -130.1640625 51.68164062 C-132.00871094 51.02131836 -132.00871094 51.02131836 -133.890625 50.34765625 C-135.01500977 49.94554932 -136.13939453 49.54344238 -137.29785156 49.12915039 C-140 48 -140 48 -142 46 C-137.44882426 36.92185691 -132.86151025 28.5880231 -126 21 C-125.36320312 20.29359375 -124.72640625 19.5871875 -124.0703125 18.859375 C-94.12925087 -12.64487459 -38.23111001 -17.11337449 0 0 Z M1.41796875 113.734375 C-4.25587157 116.31791 -9.93911722 117.76091875 -16.0234375 118.953125 C-16.89405319 119.12529541 -17.76466888 119.29746582 -18.66166687 119.47485352 C-29.57138552 121.57197571 -40.57926792 122.95125423 -51.59545898 124.35449219 C-81.70592152 128.06659633 -81.70592152 128.06659633 -106 145 C-112.17055295 153.61849532 -112.20071114 163.82336052 -111 174 C-109.01057474 183.28008371 -103.26407823 190.10939033 -95.4375 195.25 C-78.75269268 204.47187393 -58.20620416 204.87804697 -40.1171875 199.99609375 C-31.8957173 197.57831817 -24.87727175 194.09962477 -18 189 C-17.29488281 188.50113281 -16.58976562 188.00226563 -15.86328125 187.48828125 C-4.60773907 178.70940061 1.461924 164.96184326 3.58984375 151.1796875 C4.33915629 143.80058796 4.10446243 136.34584841 4.0625 128.9375 C4.05747503 127.38867332 4.05291388 125.83984507 4.04882812 124.29101562 C4.03790138 120.52730424 4.02069175 116.76366985 4 113 C2.86047823 112.92982575 2.86047823 112.92982575 1.41796875 113.734375 Z " fill="#252630" transform="translate(1190,800)"/>
<path d="M0 0 C1.9375 1.5625 1.9375 1.5625 3 4 C3.07567927 10.9630121 0.7434222 17.06207557 -1.83984375 23.41796875 C-2.23331497 24.41191147 -2.62678619 25.40585419 -3.03218079 26.42991638 C-4.32389229 29.68654824 -5.63074866 32.93687742 -6.9375 36.1875 C-7.84785588 38.47593219 -8.75701879 40.76483928 -9.66503906 43.05419922 C-11.52917195 47.75165159 -13.39826472 52.4470826 -15.27099609 57.14111328 C-18.93654575 66.33973235 -22.54141301 75.5618783 -26.14169312 84.78619385 C-27.62363669 88.58202928 -29.10851982 92.37671218 -30.59327698 96.17144775 C-36.75613188 111.92387658 -42.90444716 127.68198362 -49.05126953 143.44067383 C-51.36437527 149.37081376 -53.67807455 155.3007218 -55.9921875 161.23046875 C-56.32313416 162.07850571 -56.65408081 162.92654266 -56.99505615 163.80027771 C-58.6561074 168.05658885 -60.31725734 172.31286146 -61.97851562 176.5690918 C-65.07253982 184.49644409 -68.16573174 192.42411794 -71.25592041 200.35296631 C-72.69843835 204.05404417 -74.14143845 207.75493395 -75.58447266 211.45581055 C-76.26505072 213.20164818 -76.94539868 214.94757554 -77.62548828 216.69360352 C-81.69850171 227.15026256 -85.81117923 237.58912002 -90 248 C-94.27982549 244.22311226 -97.09511562 239.5416873 -100.171875 234.79296875 C-100.76615295 233.88488968 -101.36043091 232.97681061 -101.97271729 232.04121399 C-103.2430065 230.09985571 -104.51131884 228.15720272 -105.77783203 226.21337891 C-109.08533188 221.13871276 -112.40881667 216.07456346 -115.734375 211.01171875 C-116.38176636 210.02593842 -117.02915771 209.04015808 -117.69616699 208.02450562 C-122.02901036 201.44045417 -126.4379885 194.92790596 -131 188.5 C-140.19151641 175.52694216 -148.82503898 162.17609463 -157.53710938 148.87890625 C-165.8164341 136.25044495 -174.2714987 123.76608652 -182.91796875 111.38671875 C-183.74458008 110.19852539 -183.74458008 110.19852539 -184.58789062 108.98632812 C-185.69212836 107.39940772 -186.80185427 105.81629705 -187.91601562 104.23632812 C-188.45291016 103.46095703 -188.98980469 102.68558594 -189.54296875 101.88671875 C-190.01758545 101.20826904 -190.49220215 100.52981934 -190.98120117 99.83081055 C-192 98 -192 98 -192 95 C-191.05495605 94.51756836 -190.10991211 94.03513672 -189.13623047 93.53808594 C-166.04843757 81.7619874 -166.04843757 81.7619874 -143.22802734 69.47949219 C-135.39617433 65.16672617 -127.45482499 61.07958719 -119.5 57 C-110.60596595 52.43857994 -101.75049504 47.83335386 -93 43 C-84.24949538 38.16664085 -75.39393959 33.5616197 -66.5 29 C-55.59794541 23.40782444 -44.7929171 17.67177862 -34.0546875 11.76953125 C-28.84948371 8.91000713 -23.62097608 6.09646928 -18.375 3.3125 C-17.58641602 2.88984863 -16.79783203 2.46719727 -15.98535156 2.03173828 C-15.25541992 1.64614746 -14.52548828 1.26055664 -13.7734375 0.86328125 C-13.13841309 0.52594971 -12.50338867 0.18861816 -11.84912109 -0.15893555 C-7.27824498 -2.23797809 -4.6550356 -2.07990952 0 0 Z " fill="#7D353A" transform="translate(1389,291)"/>
<path d="M0 0 C12.21 0 24.42 0 37 0 C37 18.48 37 36.96 37 56 C53.5 56 70 56 87 56 C87 66.56 87 77.12 87 88 C70.5 88 54 88 37 88 C37.06297788 106.69851386 37.13824551 125.396848 37.23571491 144.09521103 C37.2805865 152.77814262 37.32002085 161.46103399 37.34643555 170.14404297 C37.36948583 177.71649185 37.40296171 185.28881252 37.44870156 192.86115956 C37.47253945 196.86673556 37.49132977 200.87218531 37.49761391 204.87783051 C37.50370782 208.65686738 37.52386066 212.43558163 37.55427551 216.21449852 C37.56710558 218.24465035 37.56549765 220.27487782 37.5632782 222.30506897 C37.68567331 234.37602874 39.0681377 244.62324803 47.5 253.6875 C57.47903651 261.49937202 72.33524119 259.24187546 84 258 C86.01081627 263.56263192 87.31178696 269.2432405 88.625 275 C88.96917969 276.45792969 88.96917969 276.45792969 89.3203125 277.9453125 C90.41079652 282.7096891 91.31607809 287.07583613 91 292 C70.42019618 298.19732729 49.6544156 297.16113813 30.2578125 287.65625 C16.4324466 279.90370837 6.67048561 268.18461198 2 253 C-0.26810932 244.89113052 -0.27019773 237.00854555 -0.22705078 228.65795898 C-0.2264858 227.11970528 -0.22680493 225.58145103 -0.22793579 224.04319763 C-0.2285069 219.89092253 -0.21679192 215.73876423 -0.20278788 211.58651614 C-0.19024005 207.23835269 -0.18910683 202.89018621 -0.18673706 198.54200745 C-0.18053416 190.31869389 -0.16413952 182.09543385 -0.14403808 173.87214381 C-0.12164195 164.50573631 -0.11067633 155.13932618 -0.10064721 145.77289855 C-0.07977218 126.51522925 -0.04311089 107.25763325 0 88 C-11.88 88 -23.76 88 -36 88 C-36 77.44 -36 66.88 -36 56 C-24.12 56 -12.24 56 0 56 C0 37.52 0 19.04 0 0 Z " fill="#252630" transform="translate(533,738)"/>
<path d="M0 0 C12.21 0 24.42 0 37 0 C37 18.48 37 36.96 37 56 C53.5 56 70 56 87 56 C87 66.56 87 77.12 87 88 C70.5 88 54 88 37 88 C37.06299754 106.55085997 37.13828236 125.10153921 37.23571491 143.65224743 C37.2805711 152.266769 37.3200089 160.88125016 37.34643555 169.49584961 C37.36949841 177.00934488 37.40298803 184.5227112 37.44870156 192.03610402 C37.47252269 196.00985387 37.49132388 199.98347689 37.49761391 203.95729637 C37.50371555 207.7076099 37.52389531 211.45759937 37.55427551 215.20779228 C37.56708236 217.2198597 37.56549979 219.23200315 37.5632782 221.24411011 C37.68064055 232.75283178 38.43480772 244.49763309 47 253 C53.92707155 259.04464205 64.18680414 259.5975048 73 259 C76.67308208 258.71925487 80.33693638 258.38998396 84 258 C85.65805531 261.81978402 86.65251698 265.54133083 87.5078125 269.61328125 C87.77207031 270.86044922 88.03632812 272.10761719 88.30859375 273.39257812 C88.58082679 274.69919842 88.85296097 276.0058393 89.125 277.3125 C89.40453627 278.6387587 89.68448011 279.96493158 89.96484375 281.29101562 C90.64724152 284.52652227 91.32547369 287.76284482 92 291 C74.01547222 298.01091761 54.0818331 297.4581721 36.14453125 290.40625 C20.17918742 283.26646891 9.31696758 272.02390531 2.82421875 255.77734375 C0.03790548 246.38839242 -0.27791153 237.38973598 -0.22705078 227.63623047 C-0.22648563 226.10768135 -0.22680525 224.57913169 -0.22793579 223.05058289 C-0.22850625 218.92935727 -0.21680203 214.80824965 -0.20278788 210.6870513 C-0.19022898 206.36959028 -0.18910597 202.05212613 -0.18673706 197.73464966 C-0.18053739 189.57157633 -0.16414717 181.40855699 -0.14403808 173.24550736 C-0.12163184 163.94679009 -0.1106738 154.64807015 -0.10064721 145.34933257 C-0.0797795 126.23285161 -0.04312229 107.11644461 0 88 C-11.55 88 -23.1 88 -35 88 C-35 77.44 -35 66.88 -35 56 C-23.45 56 -11.9 56 0 56 C0 37.52 0 19.04 0 0 Z " fill="#252630" transform="translate(1857,738)"/>
<path d="M0 0 C5.135625 0.2784375 5.135625 0.2784375 10.375 0.5625 C10.375 13.1025 10.375 25.6425 10.375 38.5625 C4.765 37.9025 -0.845 37.2425 -6.625 36.5625 C-23.86574387 35.59391888 -40.62627068 39.91083569 -54.1875 50.9375 C-64.14022044 60.69291981 -70.14987704 73.73856107 -70.7636652 87.72147942 C-70.77011775 88.85897196 -70.7765703 89.9964645 -70.78321838 91.16842651 C-70.7930072 92.48086838 -70.80279602 93.79331024 -70.81288147 95.14552307 C-70.81878456 96.58773767 -70.82459508 98.02995266 -70.83032227 99.47216797 C-70.83990875 101.0001298 -70.84991928 102.52808903 -70.86032104 104.05604553 C-70.88729271 108.19397127 -70.90834404 112.33190833 -70.92832303 116.46987295 C-70.95023046 120.79806154 -70.97759583 125.12621556 -71.00437927 129.45437622 C-71.05424194 137.6458707 -71.09920455 145.83738443 -71.14240164 154.02891648 C-71.19182901 163.35659141 -71.2467267 172.68423165 -71.30208123 182.01187301 C-71.41580261 201.19538453 -71.52194091 220.37892803 -71.625 239.5625 C-83.835 239.5625 -96.045 239.5625 -108.625 239.5625 C-108.625 161.6825 -108.625 83.8025 -108.625 3.5625 C-96.745 3.5625 -84.865 3.5625 -72.625 3.5625 C-72.625 15.4425 -72.625 27.3225 -72.625 39.5625 C-71.965 39.5625 -71.305 39.5625 -70.625 39.5625 C-70.46 38.634375 -70.295 37.70625 -70.125 36.75 C-66.75168551 24.95536139 -55.6790718 15.3579382 -45.58984375 9.19921875 C-30.93315864 1.10811063 -16.51525678 -0.95749736 0 0 Z " fill="#252730" transform="translate(773.625,790.4375)"/>
<path d="M0 0 C12.21 0 24.42 0 37 0 C37 103.62 37 207.24 37 314 C24.79 314 12.58 314 0 314 C0 210.38 0 106.76 0 0 Z " fill="#252630" transform="translate(1654,716)"/>
<path d="M0 0 C12.21 0 24.42 0 37 0 C37 77.88 37 155.76 37 236 C24.79 236 12.58 236 0 236 C0 158.12 0 80.24 0 0 Z " fill="#252630" transform="translate(1747,794)"/>
<path d="M0 0 C5.5877458 3.8826616 10.21042468 8.28631372 12 15 C13.1595402 23.61372723 12.27412539 30.93369608 7 38 C1.21261501 43.93836025 -5.76127043 46.52143376 -13.875 47.4375 C-20.87655073 47.10209637 -27.77348027 44.57758258 -32.9375 39.8125 C-38.26663056 33.79160729 -40.69459244 27.46498751 -40.3203125 19.41796875 C-39.42464529 12.65677359 -36.78837172 7.8997292 -32 3 C-22.9384625 -3.94075213 -10.20749359 -5.99690248 0 0 Z " fill="#252630" transform="translate(1780,709)"/>
</svg>
